<svg version="1.1" id="Layer_1" xmlns="http://www.w3.org/2000/svg" xmlns:xlink="http://www.w3.org/1999/xlink" x="0px" y="0px"
	 width="100%" viewBox="0 0 1024 1024" enable-background="new 0 0 1024 1024" xml:space="preserve">
<path fill="#000000" opacity="1.000000" stroke="none" 
	d="
M578.000000,1025.000000 
	C385.333344,1025.000000 193.166672,1025.000000 1.000000,1025.000000 
	C1.000000,683.666687 1.000000,342.333344 1.000000,1.000000 
	C342.333344,1.000000 683.666687,1.000000 1025.000000,1.000000 
	C1025.000000,342.333344 1025.000000,683.666687 1025.000000,1025.000000 
	C876.166687,1025.000000 727.333313,1025.000000 578.000000,1025.000000 
M635.002930,970.996826 
	C635.002930,970.996826 634.982910,970.972351 635.450623,970.974426 
	C635.450623,970.974426 635.892700,970.821838 636.772705,970.918457 
	C642.502808,970.589844 648.234497,969.970154 653.962708,970.000427 
	C662.673462,970.046448 671.381836,970.543091 680.785461,971.001526 
	C682.530884,971.229004 684.276306,971.456421 686.496826,971.926941 
	C687.022278,971.875549 687.547729,971.824219 688.868225,971.885559 
	C689.625977,971.712280 690.383667,971.538940 691.966553,971.523560 
	C699.277893,971.480652 706.589294,971.437683 714.298767,971.796326 
	C714.858032,971.787537 715.417358,971.778748 716.726379,971.947998 
	C717.489929,971.890381 718.253418,971.832825 719.902893,971.894958 
	C722.761108,971.590332 725.650208,971.451721 728.467468,970.927185 
	C730.616821,970.527039 732.664551,969.096069 734.775513,969.055176 
	C746.937988,968.819519 759.106995,968.935364 771.270508,968.732361 
	C773.192505,968.700317 775.097595,967.652588 777.761047,966.852173 
	C778.803833,966.824280 779.846619,966.796326 781.783264,967.029358 
	C785.663025,966.711548 789.654297,966.858521 793.395203,965.961548 
	C798.370544,964.768494 803.150940,962.762146 808.721130,960.866333 
	C810.115479,960.512878 811.509888,960.159424 813.670166,960.030334 
	C821.343140,956.157288 829.059082,952.365051 836.645691,948.329712 
	C837.870422,947.678223 838.519470,945.944580 839.969604,944.456665 
	C840.252380,944.190063 840.535156,943.923401 841.539551,943.749756 
	C847.947205,938.089355 854.433289,932.513184 860.693054,926.693787 
	C861.874817,925.595215 862.156677,923.528809 863.326538,921.503296 
	C864.210571,920.659180 865.094604,919.815063 866.665894,918.871277 
	C868.117310,916.586731 869.568726,914.302124 871.000000,912.000000 
	C871.000000,912.000000 871.018005,912.019409 871.710144,911.886780 
	C872.056274,910.884338 872.402466,909.881836 872.851807,908.448364 
	C872.851807,908.448364 873.035522,908.045105 873.734802,907.865540 
	C876.707153,900.807373 880.293091,893.936890 882.522522,886.651367 
	C886.978943,872.087646 887.961792,857.047974 886.791199,840.957825 
	C886.759644,836.017883 886.728027,831.077881 886.883850,825.198608 
	C886.788635,812.405151 886.693481,799.611755 886.779175,785.920532 
	C886.765259,776.988098 886.751343,768.055603 886.946655,758.189758 
	C886.835632,745.067688 886.724609,731.945557 886.772156,718.161011 
	C886.762024,717.480957 886.751892,716.800842 887.012573,715.236755 
	C886.922546,712.783508 886.832520,710.330261 886.801697,706.957031 
	C886.748962,698.023621 886.696167,689.090271 886.796631,679.211243 
	C886.718933,640.409790 886.641235,601.608398 886.713257,562.050720 
	C886.730957,561.023315 886.748657,559.995972 887.427307,558.921509 
	C887.608582,558.548767 887.789795,558.176025 888.595581,557.728027 
	C889.014160,557.705139 889.432678,557.682190 890.739197,557.967773 
	C892.702698,557.987305 894.745789,558.368530 896.614563,557.957397 
	C901.901245,556.794067 907.973206,557.971741 912.766724,552.809143 
	C917.671387,550.494568 922.764526,548.505371 927.441528,545.797485 
	C937.070435,540.222534 945.156982,532.740173 951.931702,523.951111 
	C955.840088,518.880737 960.828552,513.887207 962.527954,508.043884 
	C965.187378,498.899384 966.066895,489.098755 966.623352,479.513580 
	C967.457764,465.140930 967.831116,450.654388 963.740906,436.591309 
	C960.767456,426.368286 952.379822,419.603149 946.772400,411.052124 
	C945.449280,409.034332 943.940369,407.050385 942.169189,405.431335 
	C937.293152,400.974274 932.108704,396.851501 927.286560,392.339661 
	C923.767456,389.046997 920.932617,384.987915 917.267151,381.892975 
	C904.060120,370.741211 890.448303,360.063202 877.393738,348.739990 
	C873.382385,345.260712 868.734253,341.592590 868.708130,335.141022 
	C868.603638,309.343384 868.398071,283.546112 868.212891,257.748840 
	C868.023560,231.370071 867.942688,204.989395 867.520447,178.614273 
	C867.419189,172.290298 866.211792,166.332321 863.317017,160.130814 
	C857.228821,147.088226 849.360535,135.630554 838.013733,127.208298 
	C823.852051,116.696602 807.766602,110.218399 789.723999,110.133232 
	C768.412781,110.032631 747.098206,110.306839 725.790039,110.032860 
	C713.243408,109.871529 701.095642,110.553230 689.334839,115.873566 
	C684.307800,118.147682 680.176392,121.349785 675.636292,124.162834 
	C666.055908,130.098846 658.335632,137.801056 651.934998,146.922562 
	C648.365906,152.008972 646.635742,152.485229 641.241150,148.972275 
	C639.859558,148.072617 638.608032,146.941605 637.408081,145.799957 
	C629.223450,138.013306 621.135986,130.123047 612.872375,122.421593 
	C609.325989,119.116455 605.434937,116.180862 601.697632,113.080742 
	C595.505005,107.943855 589.381836,102.719765 583.093994,97.702072 
	C577.798950,93.476570 572.803040,88.431015 566.794983,85.647240 
	C557.512756,81.346474 548.286255,76.828850 537.562439,75.794350 
	C512.973938,73.422363 488.523102,71.121422 465.920380,84.123619 
	C457.230194,89.122635 448.948456,94.915199 440.879852,100.885742 
	C434.009155,105.969910 427.566925,111.668053 421.208191,117.397614 
	C416.604462,121.545776 412.646912,126.411369 408.040100,130.555649 
	C402.542572,135.501205 396.584900,139.931366 390.970123,144.751999 
	C387.272156,147.926971 383.946716,151.536163 380.245239,154.706665 
	C372.068115,161.710754 363.741547,168.540054 355.508575,175.479324 
	C348.172424,181.662659 340.902466,187.924500 333.563232,194.104141 
	C322.984009,203.011902 312.283325,211.777542 301.795197,220.790817 
	C293.310974,228.081955 285.093262,235.682297 276.701355,243.082031 
	C271.242828,247.895248 265.640869,252.545776 260.181244,257.357758 
	C253.837784,262.948669 247.732132,268.818604 241.250092,274.240906 
	C230.609436,283.141907 219.633728,291.643097 209.017258,300.572021 
	C200.658234,307.602356 192.643799,315.041565 184.437973,322.255554 
	C182.740326,323.747955 180.783875,324.947693 179.099579,326.453308 
	C170.605316,334.046509 162.260193,341.809479 153.667679,349.288757 
	C147.282700,354.846497 140.503723,359.949707 134.072006,365.456024 
	C124.180061,373.924652 114.233231,382.347382 104.688629,391.198212 
	C96.154938,399.111633 87.857719,407.322174 79.951729,415.860474 
	C68.243034,428.505676 63.797031,444.469604 62.498032,460.989105 
	C61.530895,473.288330 62.872940,485.777893 63.387012,498.174408 
	C63.455471,499.825104 64.558495,501.512268 65.441757,503.031799 
	C66.882698,505.510773 68.632225,507.809967 70.080803,510.285004 
	C72.656555,514.685730 74.492683,519.684570 77.744759,523.486755 
	C83.054123,529.694214 89.065979,535.347778 95.143059,540.834534 
	C98.904427,544.230469 103.001022,547.613586 107.545776,549.695984 
	C113.744507,552.536194 120.451355,554.358826 127.062744,556.171204 
	C130.747192,557.181274 134.696930,557.188843 138.490463,557.856506 
	C139.688736,558.067383 141.696930,558.871216 141.756393,559.543335 
	C142.273987,565.393860 142.711807,571.279907 142.631744,577.148071 
	C142.514618,585.734253 141.609833,594.315918 141.652161,602.896545 
	C141.722473,617.157898 142.506485,631.415710 142.579880,645.677063 
	C142.713181,671.584717 142.270645,697.497314 142.586227,723.401489 
	C142.862732,746.098267 141.639832,768.774231 142.385361,791.484436 
	C142.822403,804.797546 141.587296,818.159912 141.340729,831.504456 
	C141.265411,835.579834 142.221985,839.666565 142.275497,843.753723 
	C142.391083,852.579285 141.954559,861.418640 142.285660,870.232056 
	C142.471313,875.173645 143.271118,880.210266 144.648148,884.956299 
	C146.073318,889.868286 148.406921,894.538269 150.569580,899.209229 
	C153.259460,905.018982 155.242920,911.497314 159.211700,916.297668 
	C166.050690,924.569580 174.139008,931.817566 181.790695,939.406799 
	C194.167145,951.682129 209.834641,957.875488 226.285828,963.847412 
	C230.634628,964.389893 234.983429,964.932373 240.006287,965.461609 
	C240.676071,965.530457 241.345840,965.599365 242.220139,966.537109 
	C244.270889,966.482056 246.321655,966.426941 249.182571,966.373535 
	C250.811478,966.394043 252.440384,966.414490 254.057816,967.384583 
	C260.914368,967.908936 267.763428,968.582581 274.628967,968.927673 
	C290.767609,969.738831 307.037323,967.240723 323.894531,970.955444 
	C333.448303,971.205994 343.004547,971.707947 352.554932,971.614197 
	C358.418213,971.556641 364.272491,970.587341 371.011108,969.976196 
	C373.298218,969.796692 375.592682,969.397888 377.871155,969.474548 
	C389.613251,969.869324 401.351196,970.386169 413.838593,971.247070 
	C424.251709,971.422180 434.664795,971.714417 445.078003,971.718506 
	C449.675079,971.720337 454.272369,971.137695 459.570831,970.922974 
	C460.350647,970.753784 461.132233,970.430054 461.910095,970.438721 
	C474.617401,970.580505 487.324310,970.764221 500.852386,971.136475 
	C502.614502,971.396729 504.374390,971.864014 506.139069,971.882690 
	C515.607971,971.983154 525.080688,972.124023 534.547119,971.962341 
	C547.487061,971.741272 560.423584,970.935059 573.359863,970.971802 
	C590.575378,971.020752 607.789001,971.657349 625.004944,971.951721 
	C625.736694,971.964172 626.483887,971.073059 627.699951,971.116638 
	C629.798218,971.286560 631.896423,971.456421 634.483948,971.921570 
	C634.647461,971.609741 634.810974,971.297913 635.002930,970.996826 
z"/>
<path fill="#FDFDFD" opacity="1.000000" stroke="none" 
	d="
M812.904236,959.805969 
	C811.509888,960.159424 810.115479,960.512878 808.165466,960.729858 
	C801.490417,962.050415 795.375122,963.525269 789.249634,964.956360 
	C786.473267,965.604980 783.676758,966.166992 780.889404,966.768311 
	C779.846619,966.796326 778.803833,966.824280 777.123413,966.630371 
	C775.015930,966.231445 773.545837,965.897766 772.076233,965.900330 
	C742.365417,965.951660 712.654663,966.041626 682.483887,966.052368 
	C666.365356,965.998352 650.706848,966.015808 634.703491,965.990967 
	C633.896851,965.976685 633.435120,966.004578 632.507263,966.024780 
	C618.319824,966.068054 604.598450,966.118896 590.421326,966.095886 
	C575.342407,966.051147 560.719299,966.080261 545.622253,966.059998 
	C531.027893,966.078003 516.907471,966.145447 502.334839,966.157837 
	C487.298248,966.139221 472.713776,966.175659 457.654785,966.167480 
	C442.769043,966.113770 428.357819,966.104675 413.484375,966.041504 
	C398.369934,966.022095 383.717743,966.056824 368.594788,966.045044 
	C353.083313,966.023560 338.042542,966.048523 322.535645,966.019043 
	C309.134552,965.960327 296.199188,965.894348 283.264679,965.972229 
	C273.532318,966.030823 263.801056,966.273926 254.069290,966.434998 
	C252.440384,966.414490 250.811478,966.394043 248.608307,966.073120 
	C246.027893,965.737915 244.021759,965.703064 242.015625,965.668274 
	C241.345840,965.599365 240.676071,965.530457 239.478485,965.162354 
	C234.634445,964.278748 230.318207,963.694458 226.001968,963.110168 
	C209.834641,957.875488 194.167145,951.682129 181.790695,939.406799 
	C174.139008,931.817566 166.050690,924.569580 159.211700,916.297668 
	C155.242920,911.497314 153.259460,905.018982 150.569580,899.209229 
	C148.406921,894.538269 146.073318,889.868286 144.648148,884.956299 
	C143.271118,880.210266 142.471313,875.173645 142.285660,870.232056 
	C141.954559,861.418640 142.391083,852.579285 142.275497,843.753723 
	C142.221985,839.666565 141.265411,835.579834 141.340729,831.504456 
	C141.587296,818.159912 142.822403,804.797546 142.385361,791.484436 
	C141.639832,768.774231 142.862732,746.098267 142.586227,723.401489 
	C142.270645,697.497314 142.713181,671.584717 142.579880,645.677063 
	C142.506485,631.415710 141.722473,617.157898 141.652161,602.896545 
	C141.609833,594.315918 142.514618,585.734253 142.631744,577.148071 
	C142.711807,571.279907 142.273987,565.393860 141.756393,559.543335 
	C141.696930,558.871216 139.688736,558.067383 138.490463,557.856506 
	C134.696930,557.188843 130.747192,557.181274 127.062744,556.171204 
	C120.451355,554.358826 113.744507,552.536194 107.545776,549.695984 
	C103.001022,547.613586 98.904427,544.230469 95.143059,540.834534 
	C89.065979,535.347778 83.054123,529.694214 77.744759,523.486755 
	C74.492683,519.684570 72.656555,514.685730 70.080803,510.285004 
	C68.632225,507.809967 66.882698,505.510773 65.441757,503.031799 
	C64.558495,501.512268 63.455471,499.825104 63.387012,498.174408 
	C62.872940,485.777893 61.530895,473.288330 62.498032,460.989105 
	C63.797031,444.469604 68.243034,428.505676 79.951729,415.860474 
	C87.857719,407.322174 96.154938,399.111633 104.688629,391.198212 
	C114.233231,382.347382 124.180061,373.924652 134.072006,365.456024 
	C140.503723,359.949707 147.282700,354.846497 153.667679,349.288757 
	C162.260193,341.809479 170.605316,334.046509 179.099579,326.453308 
	C180.783875,324.947693 182.740326,323.747955 184.437973,322.255554 
	C192.643799,315.041565 200.658234,307.602356 209.017258,300.572021 
	C219.633728,291.643097 230.609436,283.141907 241.250092,274.240906 
	C247.732132,268.818604 253.837784,262.948669 260.181244,257.357758 
	C265.640869,252.545776 271.242828,247.895248 276.701355,243.082031 
	C285.093262,235.682297 293.310974,228.081955 301.795197,220.790817 
	C312.283325,211.777542 322.984009,203.011902 333.563232,194.104141 
	C340.902466,187.924500 348.172424,181.662659 355.508575,175.479324 
	C363.741547,168.540054 372.068115,161.710754 380.245239,154.706665 
	C383.946716,151.536163 387.272156,147.926971 390.970123,144.751999 
	C396.584900,139.931366 402.542572,135.501205 408.040100,130.555649 
	C412.646912,126.411369 416.604462,121.545776 421.208191,117.397614 
	C427.566925,111.668053 434.009155,105.969910 440.879852,100.885742 
	C448.948456,94.915199 457.230194,89.122635 465.920380,84.123619 
	C488.523102,71.121422 512.973938,73.422363 537.562439,75.794350 
	C548.286255,76.828850 557.512756,81.346474 566.794983,85.647240 
	C572.803040,88.431015 577.798950,93.476570 583.093994,97.702072 
	C589.381836,102.719765 595.505005,107.943855 601.697632,113.080742 
	C605.434937,116.180862 609.325989,119.116455 612.872375,122.421593 
	C621.135986,130.123047 629.223450,138.013306 637.408081,145.799957 
	C638.608032,146.941605 639.859558,148.072617 641.241150,148.972275 
	C646.635742,152.485229 648.365906,152.008972 651.934998,146.922562 
	C658.335632,137.801056 666.055908,130.098846 675.636292,124.162834 
	C680.176392,121.349785 684.307800,118.147682 689.334839,115.873566 
	C701.095642,110.553230 713.243408,109.871529 725.790039,110.032860 
	C747.098206,110.306839 768.412781,110.032631 789.723999,110.133232 
	C807.766602,110.218399 823.852051,116.696602 838.013733,127.208298 
	C849.360535,135.630554 857.228821,147.088226 863.317017,160.130814 
	C866.211792,166.332321 867.419189,172.290298 867.520447,178.614273 
	C867.942688,204.989395 868.023560,231.370071 868.212891,257.748840 
	C868.398071,283.546112 868.603638,309.343384 868.708130,335.141022 
	C868.734253,341.592590 873.382385,345.260712 877.393738,348.739990 
	C890.448303,360.063202 904.060120,370.741211 917.267151,381.892975 
	C920.932617,384.987915 923.767456,389.046997 927.286560,392.339661 
	C932.108704,396.851501 937.293152,400.974274 942.169189,405.431335 
	C943.940369,407.050385 945.449280,409.034332 946.772400,411.052124 
	C952.379822,419.603149 960.767456,426.368286 963.740906,436.591309 
	C967.831116,450.654388 967.457764,465.140930 966.623352,479.513580 
	C966.066895,489.098755 965.187378,498.899384 962.527954,508.043884 
	C960.828552,513.887207 955.840088,518.880737 951.931702,523.951111 
	C945.156982,532.740173 937.070435,540.222534 927.441528,545.797485 
	C922.764526,548.505371 917.671387,550.494568 912.014160,552.939697 
	C904.759888,554.157410 898.252930,555.215088 891.764160,556.374512 
	C891.072083,556.498230 890.486328,557.216736 889.851257,557.659302 
	C889.432678,557.682190 889.014160,557.705139 888.168274,557.483276 
	C887.199829,557.339355 886.658691,557.440125 886.117554,557.540894 
	C886.333801,558.016785 886.550110,558.492676 886.766418,558.968567 
	C886.748657,559.995972 886.730957,561.023315 886.279663,562.580078 
	C885.615662,564.390137 885.182861,565.670898 885.184204,566.951294 
	C885.222534,603.378052 885.291504,639.804810 885.432312,676.231262 
	C885.437378,677.541321 886.222107,678.848389 886.643433,680.156860 
	C886.696167,689.090271 886.748962,698.023621 886.447388,707.561279 
	C886.309265,710.817261 886.525513,713.468994 886.741699,716.120789 
	C886.751892,716.800842 886.762024,717.480957 886.320801,718.619690 
	C885.641663,719.686279 885.215942,720.294128 885.215515,720.902222 
	C885.207520,732.709473 885.216370,744.517151 885.343323,756.323364 
	C885.353394,757.261536 886.251831,758.190125 886.737427,759.123169 
	C886.751343,768.055603 886.765259,776.988098 886.328369,786.512146 
	C885.676880,787.722778 885.304138,788.341003 885.301086,788.961060 
	C885.245728,800.242859 885.193237,811.525208 885.279297,822.806396 
	C885.287781,823.920471 886.202393,825.027588 886.696472,826.137939 
	C886.728027,831.077881 886.759644,836.017883 886.419556,841.577576 
	C885.817322,844.477173 885.297974,846.770264 885.401672,849.034790 
	C886.257935,867.725464 882.013184,885.347290 874.585632,902.352722 
	C873.806946,904.135742 873.539978,906.142273 873.035522,908.045105 
	C873.035522,908.045105 872.851807,908.448364 872.472534,908.744507 
	C871.734863,910.033508 871.376465,911.026489 871.018005,912.019409 
	C871.018005,912.019409 871.000000,912.000000 870.662170,911.998657 
	C868.875793,914.321899 867.427185,916.646423 865.978577,918.970947 
	C865.094604,919.815063 864.210571,920.659180 862.760986,921.756653 
	C859.394104,925.012390 856.667358,928.088867 853.773682,930.999573 
	C849.517578,935.280762 845.142395,939.443542 840.817932,943.656799 
	C840.535156,943.923401 840.252380,944.190063 839.362671,944.582092 
	C830.653809,949.153809 822.543213,953.584229 814.466980,958.076599 
	C813.824280,958.434082 813.419556,959.219482 812.904236,959.805969 
M830.409363,212.303360 
	C830.556580,207.219238 830.855896,202.133591 830.804565,197.051483 
	C830.760498,192.681458 830.316101,188.315460 830.115417,183.150635 
	C826.273499,166.562622 816.728638,155.311829 799.908386,150.865356 
	C797.598694,150.254791 795.294617,149.623337 792.257202,148.665741 
	C768.466431,148.542953 744.675598,148.411652 720.884705,148.328583 
	C719.937195,148.325272 718.988098,148.779938 717.199158,148.951279 
	C715.786255,149.291840 714.384155,149.869537 712.958618,149.934708 
	C703.317871,150.375458 695.320862,154.741364 689.113892,161.557007 
	C682.261230,169.081558 677.343750,177.947189 676.429199,189.368698 
	C676.296997,191.178101 676.066467,192.986542 676.048584,194.797073 
	C675.938965,205.902298 675.877441,217.007965 675.203613,228.455505 
	C674.264221,228.513947 672.972290,229.001343 672.440186,228.564102 
	C667.419678,224.438614 662.480835,220.209625 657.610779,215.905914 
	C648.956482,208.258041 640.332092,200.575363 631.766418,192.828476 
	C628.281067,189.676270 625.089417,186.196884 621.573914,183.080887 
	C615.536865,177.729874 609.374634,172.518799 603.220154,167.301804 
	C596.895752,161.940735 590.438171,156.734299 584.189087,151.287811 
	C579.380310,147.096619 574.893066,142.537384 570.101379,138.325607 
	C564.779480,133.647797 559.569458,128.751862 553.766541,124.737396 
	C547.847534,120.642632 541.422729,117.184639 534.937500,114.026627 
	C526.856995,110.091789 517.978821,110.902618 509.321167,110.916000 
	C499.015656,110.931923 489.371429,113.644234 481.068146,119.768730 
	C473.842285,125.098488 467.014435,130.984039 460.167938,136.808807 
	C442.066864,152.208694 423.967377,167.612564 406.030243,183.202347 
	C393.697723,193.920929 381.732697,205.061890 369.420105,215.804016 
	C361.941284,222.328979 353.987610,228.307983 346.470337,234.790924 
	C333.165588,246.264969 320.127136,258.048370 306.792969,269.487518 
	C297.120056,277.785736 287.059631,285.631073 277.342529,293.879272 
	C270.347168,299.817139 263.721191,306.188751 256.766846,312.176941 
	C250.437698,317.626801 243.814209,322.733856 237.452774,328.147461 
	C227.819885,336.345154 218.347748,344.731598 208.721985,352.937714 
	C198.837845,361.364166 188.787842,369.596466 178.926468,378.049103 
	C168.183853,387.257080 157.505264,396.542542 146.925919,405.937439 
	C135.407578,416.166107 123.786377,426.299896 112.677437,436.962036 
	C103.635788,445.640045 99.143456,457.052673 99.172691,469.302582 
	C99.216354,487.590698 107.002640,502.768311 122.132965,513.350098 
	C133.426270,521.248352 146.147324,523.036743 159.523178,519.303345 
	C171.441116,515.976868 180.649582,508.458649 189.555344,500.298492 
	C203.231689,487.767059 217.052917,475.389923 230.969971,463.125824 
	C257.079071,440.117706 283.352722,417.296265 309.450287,394.275116 
	C320.058044,384.917847 330.261810,375.102570 340.871460,365.747498 
	C353.269196,354.815796 366.009399,344.272827 378.424194,333.360046 
	C406.194153,308.949799 433.875153,284.438110 461.550262,259.920227 
	C474.579285,248.377594 487.235352,236.392456 500.628937,225.293915 
	C505.679382,221.108887 512.330322,217.038742 519.296631,221.550781 
	C526.170105,226.002640 532.670593,231.124985 538.896301,236.464417 
	C557.842163,252.713226 576.600647,269.181000 595.386230,285.615997 
	C615.238586,302.984253 635.029175,320.423157 654.863647,337.811859 
	C671.450378,352.353333 688.094666,366.829193 704.652466,381.403442 
	C721.211182,395.978455 737.664246,410.673492 754.218872,425.253143 
	C770.194336,439.322693 786.201904,453.356323 802.269104,467.320953 
	C812.746826,476.427612 823.325378,485.419220 833.916992,494.393646 
	C841.783142,501.058685 849.414612,508.067291 857.750122,514.093689 
	C866.663452,520.537842 877.239441,522.003540 887.973938,520.616760 
	C904.680176,518.458496 916.561829,508.897949 924.020264,494.308807 
	C928.325806,485.886871 930.141663,476.759521 929.400269,466.760101 
	C928.363159,452.772339 923.207153,441.404877 912.996826,432.204712 
	C906.479614,426.332397 899.605103,420.857849 892.927246,415.162201 
	C889.701294,412.410675 886.552612,409.568237 883.380432,406.753906 
	C878.134277,402.099609 872.903320,397.428101 867.654663,392.776642 
	C864.238220,389.748932 860.785828,386.761505 857.377563,383.724701 
	C851.791748,378.747772 846.131897,373.848297 840.683228,368.724823 
	C835.113464,363.487640 829.517639,358.760712 830.040833,349.433075 
	C830.850769,334.993561 830.094421,320.466156 830.104248,305.047852 
	C830.058716,291.105591 830.013184,277.163361 830.198914,262.278931 
	C830.143921,245.860046 830.088928,229.441147 830.409363,212.303360 
M846.646057,865.384521 
	C846.763916,863.067139 846.983521,860.749817 846.985046,858.432373 
	C847.051270,759.089172 847.102295,659.745911 847.109497,560.402710 
	C847.109619,558.844849 846.541321,557.286926 845.839111,555.160645 
	C841.064087,550.846741 836.311462,546.507690 831.506470,542.227417 
	C828.093384,539.186951 824.654053,536.172546 821.147827,533.240601 
	C814.806396,527.937683 808.328064,522.796082 802.050293,517.419678 
	C794.401855,510.869446 786.897095,504.151398 779.338562,497.496307 
	C775.782898,494.365631 772.201050,491.262604 768.712585,488.058228 
	C762.913879,482.731812 757.229553,477.280273 751.401489,471.986603 
	C748.061890,468.953186 744.473389,466.195038 741.103333,463.193573 
	C734.533569,457.342438 728.122986,451.310333 721.488098,445.535248 
	C715.235962,440.093353 708.672546,435.008362 702.438416,429.546753 
	C692.519409,420.857025 682.830994,411.904144 672.907837,403.219238 
	C666.654602,397.746338 660.013123,392.715302 653.792297,387.207581 
	C644.025452,378.560303 634.561401,369.570709 624.783630,360.936127 
	C619.080811,355.900177 612.855103,351.456238 607.154846,346.417603 
	C599.228088,339.410797 591.641113,332.020905 583.771484,324.947632 
	C580.261292,321.792664 576.325806,319.115356 572.745483,316.032898 
	C567.316528,311.358856 562.043884,306.503693 556.675354,301.758759 
	C553.881592,299.289459 550.996399,296.923492 548.202209,294.454620 
	C542.499634,289.416016 536.878113,284.284698 531.131958,279.296661 
	C526.960083,275.675140 522.370667,272.496429 518.456726,268.625488 
	C513.518738,263.741699 513.613586,263.574158 508.297363,268.295288 
	C489.079041,285.362122 469.790771,302.350311 450.592987,319.440247 
	C432.917969,335.174530 415.396576,351.081940 397.672913,366.760956 
	C384.740967,378.200989 371.513763,389.307068 358.566071,400.729645 
	C350.855347,407.532135 343.557648,414.802948 335.845245,421.603455 
	C326.164246,430.139771 316.147491,438.295227 306.459869,446.824249 
	C294.071747,457.730865 281.936310,468.924286 269.561157,479.845825 
	C260.352905,487.972382 250.891022,495.810760 241.622971,503.870483 
	C223.974182,519.218384 206.350952,534.596130 188.808670,550.065247 
	C186.583710,552.027283 184.908524,554.612793 182.432526,557.555603 
	C182.389877,557.885132 182.309814,558.214600 182.309845,558.544128 
	C182.318542,658.055603 182.326111,757.567078 182.372253,857.078552 
	C182.374023,860.885986 182.749146,864.693237 182.785980,869.286560 
	C182.988419,870.930786 183.030548,872.613953 183.418259,874.213257 
	C187.048630,889.188232 195.408691,900.918518 207.080536,910.929260 
	C220.491028,922.431091 235.700256,928.135010 253.165497,928.135864 
	C426.498047,928.144348 599.830627,928.042114 773.163025,928.231445 
	C788.984375,928.248718 803.170959,924.016113 815.966675,915.375610 
	C833.370056,903.623779 843.419189,886.984619 846.646057,865.384521 
z"/>
<path fill="#7E7E7E" opacity="1.000000" stroke="none" 
	d="
M546.096130,966.109375 
	C560.719299,966.080261 575.342407,966.051147 590.447388,966.451294 
	C590.963989,967.593323 590.998779,968.305969 591.266785,969.376709 
	C593.637634,969.866394 595.773682,970.075256 597.912964,970.116394 
	C607.682800,970.304260 617.453491,970.445129 627.223877,970.602905 
	C626.483887,971.073059 625.736694,971.964172 625.004944,971.951721 
	C607.789001,971.657349 590.575378,971.020752 573.359863,970.971802 
	C560.423584,970.935059 547.487061,971.741272 534.547119,971.962341 
	C525.080688,972.124023 515.607971,971.983154 506.139069,971.882690 
	C504.374390,971.864014 502.614502,971.396729 500.576904,970.776367 
	C501.049622,970.287231 501.797852,970.158142 503.053864,970.061035 
	C516.154236,970.083374 528.747009,970.107788 541.339050,970.019775 
	C542.857422,970.009216 544.371643,969.390930 545.931458,968.687622 
	C546.015442,967.583679 546.055786,966.846558 546.096130,966.109375 
z"/>
<path fill="#A2A2A2" opacity="1.000000" stroke="none" 
	d="
M682.943909,966.123779 
	C712.654663,966.041626 742.365417,965.951660 772.076233,965.900330 
	C773.545837,965.897766 775.015930,966.231445 776.748169,966.741577 
	C775.097595,967.652588 773.192505,968.700317 771.270508,968.732361 
	C759.106995,968.935364 746.937988,968.819519 734.775513,969.055176 
	C732.664551,969.096069 730.616821,970.527039 728.467468,970.927185 
	C725.650208,971.451721 722.761108,971.590332 719.261353,971.617188 
	C717.738770,971.482910 716.857727,971.626465 715.976624,971.770020 
	C715.417358,971.778748 714.858032,971.787537 714.295654,971.195007 
	C718.477722,970.270874 722.662903,969.948120 726.848083,969.625305 
	C723.855774,968.914734 720.901978,968.913696 717.948181,968.914917 
	C707.509033,968.919373 697.069763,968.918457 686.631042,968.981750 
	C686.458984,968.982849 686.291687,969.768188 686.069092,970.559265 
	C686.017883,971.181946 686.019775,971.432922 686.021729,971.683899 
	C684.276306,971.456421 682.530884,971.229004 680.662476,970.665161 
	C681.340942,968.927124 682.142395,967.525452 682.943909,966.123779 
z"/>
<path fill="#B1B1B1" opacity="1.000000" stroke="none" 
	d="
M323.001770,966.073486 
	C338.042542,966.048523 353.083313,966.023560 368.576904,966.411987 
	C369.396790,967.892761 369.763824,968.960144 370.130859,970.027466 
	C364.272491,970.587341 358.418213,971.556641 352.554932,971.614197 
	C343.004547,971.707947 333.448303,971.205994 323.430603,970.506592 
	C322.978363,968.729675 322.990082,967.401611 323.001770,966.073486 
z"/>
<path fill="#A2A2A2" opacity="1.000000" stroke="none" 
	d="
M886.720032,679.684082 
	C886.222107,678.848389 885.437378,677.541321 885.432312,676.231262 
	C885.291504,639.804810 885.222534,603.378052 885.184204,566.951294 
	C885.182861,565.670898 885.615662,564.390137 886.204834,562.958252 
	C886.641235,601.608398 886.718933,640.409790 886.720032,679.684082 
z"/>
<path fill="#A7A7A7" opacity="1.000000" stroke="none" 
	d="
M413.946594,966.095581 
	C428.357819,966.104675 442.769043,966.113770 457.625305,966.492065 
	C457.971405,967.284119 457.872498,967.707031 457.347839,968.087769 
	C443.282898,968.045532 429.643768,968.045532 416.004608,968.045532 
	C416.008392,968.697815 416.012207,969.350159 416.015991,970.002441 
	C429.924927,970.002441 443.833832,970.002441 457.985107,970.050659 
	C458.544128,970.247925 458.758179,970.488464 458.869568,970.820374 
	C454.272369,971.137695 449.675079,971.720337 445.078003,971.718506 
	C434.664795,971.714417 424.251709,971.422180 413.591797,970.726929 
	C413.545502,968.836426 413.746063,967.466003 413.946594,966.095581 
z"/>
<path fill="#7A7878" opacity="1.000000" stroke="none" 
	d="
M682.483887,966.052368 
	C682.142395,967.525452 681.340942,968.927124 680.315308,970.588562 
	C671.381836,970.543091 662.673462,970.046448 653.962708,970.000427 
	C648.234497,969.970154 642.502808,970.589844 636.214294,970.674866 
	C635.368652,970.195740 635.086060,970.201538 634.815186,970.005737 
	C634.897583,968.386353 634.972961,967.209778 635.048279,966.033264 
	C650.706848,966.015808 666.365356,965.998352 682.483887,966.052368 
z"/>
<path fill="#797979" opacity="1.000000" stroke="none" 
	d="
M322.535675,966.019043 
	C322.990082,967.401611 322.978363,968.729675 323.017181,970.453918 
	C307.037323,967.240723 290.767609,969.738831 274.628967,968.927673 
	C267.763428,968.582581 260.914368,967.908936 254.063553,966.909790 
	C263.801056,966.273926 273.532318,966.030823 283.264679,965.972229 
	C296.199188,965.894348 309.134552,965.960327 322.535675,966.019043 
z"/>
<path fill="#666666" opacity="1.000000" stroke="none" 
	d="
M459.220215,970.871704 
	C458.758179,970.488464 458.544128,970.247925 458.052856,969.741760 
	C457.843384,968.966431 457.808502,968.548218 457.773621,968.129944 
	C457.872498,967.707031 457.971405,967.284119 458.099823,966.536621 
	C472.713776,966.175659 487.298248,966.139221 502.356995,966.503967 
	C502.873840,967.597534 502.916412,968.290039 502.846649,969.240479 
	C502.671570,969.675354 502.608826,969.852234 502.546051,970.029053 
	C501.797852,970.158142 501.049622,970.287231 500.166351,970.677429 
	C487.324310,970.764221 474.617401,970.580505 461.910095,970.438721 
	C461.132233,970.430054 460.350647,970.753784 459.220215,970.871704 
z"/>
<path fill="#777777" opacity="1.000000" stroke="none" 
	d="
M413.484375,966.041504 
	C413.746063,967.466003 413.545502,968.836426 413.217773,970.533691 
	C401.351196,970.386169 389.613251,969.869324 377.871155,969.474548 
	C375.592682,969.397888 373.298218,969.796692 370.570984,970.001831 
	C369.763824,968.960144 369.396790,967.892761 369.047638,966.458496 
	C383.717743,966.056824 398.369934,966.022095 413.484375,966.041504 
z"/>
<path fill="#A2A2A2" opacity="1.000000" stroke="none" 
	d="
M873.385132,907.955322 
	C873.539978,906.142273 873.806946,904.135742 874.585632,902.352722 
	C882.013184,885.347290 886.257935,867.725464 885.401672,849.034790 
	C885.297974,846.770264 885.817322,844.477173 886.390015,842.035095 
	C887.961792,857.047974 886.978943,872.087646 882.522522,886.651367 
	C880.293091,893.936890 876.707153,900.807373 873.385132,907.955322 
z"/>
<path fill="#A2A2A2" opacity="1.000000" stroke="none" 
	d="
M886.842041,758.656494 
	C886.251831,758.190125 885.353394,757.261536 885.343323,756.323364 
	C885.216370,744.517151 885.207520,732.709473 885.215515,720.902222 
	C885.215942,720.294128 885.641663,719.686279 886.241455,718.950928 
	C886.724609,731.945557 886.835632,745.067688 886.842041,758.656494 
z"/>
<path fill="#A2A2A2" opacity="1.000000" stroke="none" 
	d="
M886.790161,825.668274 
	C886.202393,825.027588 885.287781,823.920471 885.279297,822.806396 
	C885.193237,811.525208 885.245728,800.242859 885.301086,788.961060 
	C885.304138,788.341003 885.676880,787.722778 886.237915,786.961060 
	C886.693481,799.611755 886.788635,812.405151 886.790161,825.668274 
z"/>
<path fill="#D2D1D0" opacity="1.000000" stroke="none" 
	d="
M686.122070,970.187500 
	C686.291687,969.768188 686.458984,968.982849 686.631042,968.981750 
	C697.069763,968.918457 707.509033,968.919373 717.948181,968.914917 
	C720.901978,968.913696 723.855774,968.914734 726.848083,969.625305 
	C722.662903,969.948120 718.477722,970.270874 714.096558,970.994263 
	C706.589294,971.437683 699.277893,971.480652 691.483032,971.120728 
	C689.957703,970.543152 688.915894,970.368469 687.582336,970.171631 
	C686.901123,970.162231 686.511597,970.174866 686.122070,970.187500 
z"/>
<path fill="#D6D6D5" opacity="1.000000" stroke="none" 
	d="
M634.703491,965.990967 
	C634.972961,967.209778 634.897583,968.386353 634.842651,970.139038 
	C634.863037,970.715149 634.982910,970.972351 634.982910,970.972351 
	C634.982910,970.972351 635.002930,970.996826 634.776123,971.009521 
	C634.250610,971.119202 634.065735,971.320557 633.994690,971.626282 
	C631.896423,971.456421 629.798218,971.286560 627.461914,970.859741 
	C617.453491,970.445129 607.682800,970.304260 597.912964,970.116394 
	C595.773682,970.075256 593.637634,969.866394 591.732178,969.364380 
	C602.913513,968.985413 613.868591,969.168091 624.807800,968.834473 
	C627.555542,968.750732 630.252808,967.011047 632.973328,966.032471 
	C633.435120,966.004578 633.896851,965.976685 634.703491,965.990967 
z"/>
<path fill="#A2A2A2" opacity="1.000000" stroke="none" 
	d="
M841.178711,943.703247 
	C845.142395,939.443542 849.517578,935.280762 853.773682,930.999573 
	C856.667358,928.088867 859.394104,925.012390 862.524658,921.959473 
	C862.156677,923.528809 861.874817,925.595215 860.693054,926.693787 
	C854.433289,932.513184 847.947205,938.089355 841.178711,943.703247 
z"/>
<path fill="#A2A2A2" opacity="1.000000" stroke="none" 
	d="
M813.287231,959.918152 
	C813.419556,959.219482 813.824280,958.434082 814.466980,958.076599 
	C822.543213,953.584229 830.653809,949.153809 839.095154,944.709351 
	C838.519470,945.944580 837.870422,947.678223 836.645691,948.329712 
	C829.059082,952.365051 821.343140,956.157288 813.287231,959.918152 
z"/>
<path fill="#A2A2A2" opacity="1.000000" stroke="none" 
	d="
M781.336304,966.898804 
	C783.676758,966.166992 786.473267,965.604980 789.249634,964.956360 
	C795.375122,963.525269 801.490417,962.050415 807.812439,960.849365 
	C803.150940,962.762146 798.370544,964.768494 793.395203,965.961548 
	C789.654297,966.858521 785.663025,966.711548 781.336304,966.898804 
z"/>
<path fill="#A2A2A2" opacity="1.000000" stroke="none" 
	d="
M890.295227,557.813538 
	C890.486328,557.216736 891.072083,556.498230 891.764160,556.374512 
	C898.252930,555.215088 904.759888,554.157410 911.668701,553.066162 
	C907.973206,557.971741 901.901245,556.794067 896.614563,557.957397 
	C894.745789,558.368530 892.702698,557.987305 890.295227,557.813538 
z"/>
<path fill="#797979" opacity="1.000000" stroke="none" 
	d="
M226.143890,963.478760 
	C230.318207,963.694458 234.634445,964.278748 239.141449,965.168945 
	C234.983429,964.932373 230.634628,964.389893 226.143890,963.478760 
z"/>
<path fill="#A2A2A2" opacity="1.000000" stroke="none" 
	d="
M886.877136,715.678772 
	C886.525513,713.468994 886.309265,710.817261 886.417786,708.021240 
	C886.832520,710.330261 886.922546,712.783508 886.877136,715.678772 
z"/>
<path fill="#A2A2A2" opacity="1.000000" stroke="none" 
	d="
M866.322266,918.921143 
	C867.427185,916.646423 868.875793,914.321899 870.672241,912.007446 
	C869.568726,914.302124 868.117310,916.586731 866.322266,918.921143 
z"/>
<path fill="#797979" opacity="1.000000" stroke="none" 
	d="
M242.117889,966.102661 
	C244.021759,965.703064 246.027893,965.737915 248.203217,966.072327 
	C246.321655,966.426941 244.270889,966.482056 242.117889,966.102661 
z"/>
<path fill="#A2A2A2" opacity="1.000000" stroke="none" 
	d="
M687.874023,970.193787 
	C688.915894,970.368469 689.957703,970.543152 691.070496,971.041748 
	C690.383667,971.538940 689.625977,971.712280 688.455078,971.563538 
	C687.986023,970.892273 687.929993,970.543030 687.874023,970.193787 
z"/>
<path fill="#A2A2A2" opacity="1.000000" stroke="none" 
	d="
M871.364075,911.953125 
	C871.376465,911.026489 871.734863,910.033508 872.420898,908.959961 
	C872.402466,909.881836 872.056274,910.884338 871.364075,911.953125 
z"/>
<path fill="#A2A2A2" opacity="1.000000" stroke="none" 
	d="
M887.096863,558.945068 
	C886.550110,558.492676 886.333801,558.016785 886.117554,557.540894 
	C886.658691,557.440125 887.199829,557.339355 887.856018,557.520935 
	C887.789795,558.176025 887.608582,558.548767 887.096863,558.945068 
z"/>
<path fill="#7A7878" opacity="1.000000" stroke="none" 
	d="
M687.582336,970.171631 
	C687.929993,970.543030 687.986023,970.892273 688.057617,971.507202 
	C687.547729,971.824219 687.022278,971.875549 686.259277,971.805420 
	C686.019775,971.432922 686.017883,971.181946 686.069092,970.559265 
	C686.511597,970.174866 686.901123,970.162231 687.582336,970.171631 
z"/>
<path fill="#7A7878" opacity="1.000000" stroke="none" 
	d="
M716.351501,971.859009 
	C716.857727,971.626465 717.738770,971.482910 718.818420,971.557251 
	C718.253418,971.832825 717.489929,971.890381 716.351501,971.859009 
z"/>
<path fill="#B8B8B8" opacity="1.000000" stroke="none" 
	d="
M635.216797,970.973389 
	C634.982910,970.972351 634.863037,970.715149 634.835571,970.581909 
	C635.086060,970.201538 635.368652,970.195740 635.774292,970.626587 
	C635.892700,970.821838 635.450623,970.974426 635.216797,970.973389 
z"/>
<path fill="#B8B8B8" opacity="1.000000" stroke="none" 
	d="
M634.239319,971.773926 
	C634.065735,971.320557 634.250610,971.119202 634.761902,971.004150 
	C634.810974,971.297913 634.647461,971.609741 634.239319,971.773926 
z"/>
<path fill="#26CCCC" opacity="1.000000" stroke="none" 
	d="
M182.978638,556.909424 
	C184.908524,554.612793 186.583710,552.027283 188.808670,550.065247 
	C206.350952,534.596130 223.974182,519.218384 241.622971,503.870483 
	C250.891022,495.810760 260.352905,487.972382 269.561157,479.845825 
	C281.936310,468.924286 294.071747,457.730865 306.459869,446.824249 
	C316.147491,438.295227 326.164246,430.139771 335.845245,421.603455 
	C343.557648,414.802948 350.855347,407.532135 358.566071,400.729645 
	C371.513763,389.307068 384.740967,378.200989 397.672913,366.760956 
	C415.396576,351.081940 432.917969,335.174530 450.592987,319.440247 
	C469.790771,302.350311 489.079041,285.362122 508.297363,268.295288 
	C513.613586,263.574158 513.518738,263.741699 518.456726,268.625488 
	C522.370667,272.496429 526.960083,275.675140 531.131958,279.296661 
	C536.878113,284.284698 542.499634,289.416016 548.202209,294.454620 
	C550.996399,296.923492 553.881592,299.289459 556.675354,301.758759 
	C562.043884,306.503693 567.316528,311.358856 572.745483,316.032898 
	C576.325806,319.115356 580.261292,321.792664 583.771484,324.947632 
	C591.641113,332.020905 599.228088,339.410797 607.154846,346.417603 
	C612.855103,351.456238 619.080811,355.900177 624.783630,360.936127 
	C634.561401,369.570709 644.025452,378.560303 653.792297,387.207581 
	C660.013123,392.715302 666.654602,397.746338 672.907837,403.219238 
	C682.830994,411.904144 692.519409,420.857025 702.438416,429.546753 
	C708.672546,435.008362 715.235962,440.093353 721.488098,445.535248 
	C728.122986,451.310333 734.533569,457.342438 741.103333,463.193573 
	C744.473389,466.195038 748.061890,468.953186 751.401489,471.986603 
	C757.229553,477.280273 762.913879,482.731812 768.712585,488.058228 
	C772.201050,491.262604 775.782898,494.365631 779.338562,497.496307 
	C786.897095,504.151398 794.401855,510.869446 802.050293,517.419678 
	C808.328064,522.796082 814.806396,527.937683 821.147827,533.240601 
	C824.654053,536.172546 828.093384,539.186951 831.506470,542.227417 
	C836.311462,546.507690 841.064087,550.846741 845.999573,555.935303 
	C846.134521,557.709229 846.086975,558.708435 846.086670,559.707642 
	C846.053040,660.997559 846.022522,762.287415 845.999939,863.577332 
	C845.999756,864.406494 846.109253,865.235657 846.167542,866.064819 
	C843.419189,886.984619 833.370056,903.623779 815.966675,915.375610 
	C803.170959,924.016113 788.984375,928.248718 773.163025,928.231445 
	C599.830627,928.042114 426.498047,928.144348 253.165497,928.135864 
	C235.700256,928.135010 220.491028,922.431091 207.080536,910.929260 
	C195.408691,900.918518 187.048630,889.188232 183.418259,874.213257 
	C183.030548,872.613953 182.988419,870.930786 183.221390,868.592896 
	C183.770432,866.581665 183.982300,865.264282 183.983536,863.946594 
	C184.042953,801.155945 184.105820,738.365234 184.118805,675.574585 
	C184.125900,641.247375 184.087433,606.919922 183.959122,572.593079 
	C183.939575,567.364014 183.320450,562.137268 182.978638,556.909424 
M499.996765,517.002258 
	C499.996765,517.002258 499.923431,517.026001 500.544434,516.442444 
	C500.344269,510.235260 500.144104,504.028107 499.546509,497.184723 
	C497.736023,479.973846 491.511017,464.682068 480.191376,451.443237 
	C471.214600,440.944489 450.600403,436.075867 437.783997,446.363861 
	C429.976501,452.631042 424.893097,460.586578 422.036011,469.914124 
	C415.606964,490.902832 416.413513,511.642059 426.500153,531.328979 
	C432.837158,543.697449 441.779480,553.369263 456.953400,555.052734 
	C469.882843,556.487244 479.999207,551.870728 488.675476,542.594971 
	C494.172241,536.718445 496.101990,529.272522 499.645020,521.751404 
	C499.754181,520.143982 499.863342,518.536499 499.996765,517.002258 
M650.976990,708.615540 
	C649.694580,706.303467 648.666016,703.799438 647.087097,701.711609 
	C639.112610,691.166992 631.066772,680.674316 622.910034,670.270020 
	C611.449707,655.651978 599.622498,641.315247 588.404907,626.515076 
	C575.024963,608.862061 560.158447,593.508423 537.989990,587.003052 
	C523.721802,582.816101 509.463440,583.312500 495.561066,587.080444 
	C473.594910,593.033813 458.925049,608.845459 446.004059,626.559204 
	C438.269318,637.163147 430.684753,647.897766 422.482971,658.133240 
	C415.565613,666.765808 407.553406,674.517151 400.564423,683.097351 
	C388.819031,697.516846 377.993713,712.430908 375.898682,731.899841 
	C373.410461,755.022400 379.733398,773.920288 399.495056,787.782288 
	C411.879700,796.469666 425.542145,796.688110 439.256805,795.024475 
	C454.058044,793.229065 466.405518,784.401428 479.297943,777.684021 
	C499.181793,767.323853 519.556458,764.180542 540.648743,771.987244 
	C552.761719,776.470459 563.978516,783.320068 575.937073,788.290405 
	C588.365845,793.456299 600.958740,797.896484 615.106873,794.967041 
	C630.050110,791.872925 642.338318,784.799561 650.455383,772.148621 
	C658.291016,759.936096 660.667114,745.798401 658.465576,731.500610 
	C657.292175,723.879517 653.890137,716.601562 650.976990,708.615540 
M553.367065,452.855865 
	C538.953552,470.334656 533.193726,490.559540 534.615234,512.936523 
	C535.304260,523.781799 538.658386,533.771545 545.869751,542.152710 
	C550.553833,547.596619 556.588196,550.690430 563.225830,553.547180 
	C571.716003,557.201294 579.874268,555.649475 587.550415,553.380981 
	C596.877563,550.624634 602.967896,542.553406 607.578552,534.417297 
	C615.490173,520.456360 618.143127,504.969910 616.779175,489.034760 
	C615.578796,475.010345 611.955750,461.717712 602.441162,450.649780 
	C595.457214,442.525696 585.955688,439.653534 576.205017,440.449249 
	C567.696777,441.143555 559.474182,444.937866 553.367065,452.855865 
M346.968414,621.577271 
	C351.407318,626.962402 355.306030,632.956604 360.463715,637.531311 
	C364.279480,640.915833 369.501892,642.566956 374.803131,644.075684 
	C384.228943,646.758301 399.631348,641.563904 405.762695,634.245850 
	C413.992035,624.423706 416.907623,612.805420 416.112488,599.978638 
	C415.493958,590.000854 413.024719,580.644470 408.734222,571.734497 
	C402.349762,558.476196 394.395844,546.291077 380.310211,540.249023 
	C359.404785,531.281555 343.473328,539.387512 337.487518,560.390808 
	C331.484131,581.455688 335.391479,601.985718 346.968414,621.577271 
M629.506042,633.962463 
	C629.898804,634.270020 630.330322,634.539062 630.678711,634.890564 
	C644.384644,648.717285 662.829407,647.826904 676.707458,636.000305 
	C685.586365,628.433960 690.357849,618.169678 694.324036,607.346008 
	C700.119141,591.530884 701.495789,575.505676 696.860107,559.381775 
	C691.739563,541.571411 679.926758,533.983948 662.929382,537.603394 
	C645.414429,541.333008 635.342407,554.662170 627.278381,569.346802 
	C622.498169,578.051636 620.110657,587.713623 619.495117,597.740662 
	C618.697998,610.724854 620.318665,623.019897 629.506042,633.962463 
z"/>
<path fill="#26CCCC" opacity="1.000000" stroke="none" 
	d="
M676.885254,188.590408 
	C677.343750,177.947189 682.261230,169.081558 689.113892,161.557007 
	C695.320862,154.741364 703.317871,150.375458 712.958618,149.934708 
	C714.384155,149.869537 715.786255,149.291840 718.030151,149.049835 
	C720.475098,149.424286 722.087219,149.926224 723.703430,149.939850 
	C735.327759,150.037796 746.954956,150.186920 758.577148,150.024429 
	C770.049927,149.864044 781.517883,149.356674 792.987915,149.001541 
	C795.294617,149.623337 797.598694,150.254791 799.908386,150.865356 
	C816.728638,155.311829 826.273499,166.562622 830.049805,183.996735 
	C830.000732,194.235977 830.017273,203.629120 830.033875,213.022263 
	C830.088928,229.441147 830.143921,245.860046 829.893799,263.083252 
	C829.424683,276.993958 829.241760,290.100189 829.137085,303.207031 
	C829.129700,304.127655 829.700439,305.052917 830.002197,305.976044 
	C830.094421,320.466156 830.850769,334.993561 830.040833,349.433075 
	C829.517639,358.760712 835.113464,363.487640 840.683228,368.724823 
	C846.131897,373.848297 851.791748,378.747772 857.377563,383.724701 
	C860.785828,386.761505 864.238220,389.748932 867.654663,392.776642 
	C872.903320,397.428101 878.134277,402.099609 883.380432,406.753906 
	C886.552612,409.568237 889.701294,412.410675 892.927246,415.162201 
	C899.605103,420.857849 906.479614,426.332397 912.996826,432.204712 
	C923.207153,441.404877 928.363159,452.772339 929.400269,466.760101 
	C930.141663,476.759521 928.325806,485.886871 924.020264,494.308807 
	C916.561829,508.897949 904.680176,518.458496 887.973938,520.616760 
	C877.239441,522.003540 866.663452,520.537842 857.750122,514.093689 
	C849.414612,508.067291 841.783142,501.058685 833.916992,494.393646 
	C823.325378,485.419220 812.746826,476.427612 802.269104,467.320953 
	C786.201904,453.356323 770.194336,439.322693 754.218872,425.253143 
	C737.664246,410.673492 721.211182,395.978455 704.652466,381.403442 
	C688.094666,366.829193 671.450378,352.353333 654.863647,337.811859 
	C635.029175,320.423157 615.238586,302.984253 595.386230,285.615997 
	C576.600647,269.181000 557.842163,252.713226 538.896301,236.464417 
	C532.670593,231.124985 526.170105,226.002640 519.296631,221.550781 
	C512.330322,217.038742 505.679382,221.108887 500.628937,225.293915 
	C487.235352,236.392456 474.579285,248.377594 461.550262,259.920227 
	C433.875153,284.438110 406.194153,308.949799 378.424194,333.360046 
	C366.009399,344.272827 353.269196,354.815796 340.871460,365.747498 
	C330.261810,375.102570 320.058044,384.917847 309.450287,394.275116 
	C283.352722,417.296265 257.079071,440.117706 230.969971,463.125824 
	C217.052917,475.389923 203.231689,487.767059 189.555344,500.298492 
	C180.649582,508.458649 171.441116,515.976868 159.523178,519.303345 
	C146.147324,523.036743 133.426270,521.248352 122.132965,513.350098 
	C107.002640,502.768311 99.216354,487.590698 99.172691,469.302582 
	C99.143456,457.052673 103.635788,445.640045 112.677437,436.962036 
	C123.786377,426.299896 135.407578,416.166107 146.925919,405.937439 
	C157.505264,396.542542 168.183853,387.257080 178.926468,378.049103 
	C188.787842,369.596466 198.837845,361.364166 208.721985,352.937714 
	C218.347748,344.731598 227.819885,336.345154 237.452774,328.147461 
	C243.814209,322.733856 250.437698,317.626801 256.766846,312.176941 
	C263.721191,306.188751 270.347168,299.817139 277.342529,293.879272 
	C287.059631,285.631073 297.120056,277.785736 306.792969,269.487518 
	C320.127136,258.048370 333.165588,246.264969 346.470337,234.790924 
	C353.987610,228.307983 361.941284,222.328979 369.420105,215.804016 
	C381.732697,205.061890 393.697723,193.920929 406.030243,183.202347 
	C423.967377,167.612564 442.066864,152.208694 460.167938,136.808807 
	C467.014435,130.984039 473.842285,125.098488 481.068146,119.768730 
	C489.371429,113.644234 499.015656,110.931923 509.321167,110.916000 
	C517.978821,110.902618 526.856995,110.091789 534.937500,114.026627 
	C541.422729,117.184639 547.847534,120.642632 553.766541,124.737396 
	C559.569458,128.751862 564.779480,133.647797 570.101379,138.325607 
	C574.893066,142.537384 579.380310,147.096619 584.189087,151.287811 
	C590.438171,156.734299 596.895752,161.940735 603.220154,167.301804 
	C609.374634,172.518799 615.536865,177.729874 621.573914,183.080887 
	C625.089417,186.196884 628.281067,189.676270 631.766418,192.828476 
	C640.332092,200.575363 648.956482,208.258041 657.610779,215.905914 
	C662.480835,220.209625 667.419678,224.438614 672.440186,228.564102 
	C672.972290,229.001343 674.264221,228.513947 675.856934,228.128448 
	C676.714294,224.726440 677.089355,221.651596 677.090881,218.576538 
	C677.095886,208.581207 676.964294,198.585785 676.885254,188.590408 
z"/>
<path fill="#021118" opacity="1.000000" stroke="none" 
	d="
M182.705566,557.232544 
	C183.320450,562.137268 183.939575,567.364014 183.959122,572.593079 
	C184.087433,606.919922 184.125900,641.247375 184.118805,675.574585 
	C184.105820,738.365234 184.042953,801.155945 183.983536,863.946594 
	C183.982300,865.264282 183.770432,866.581665 183.303558,868.199951 
	C182.749146,864.693237 182.374023,860.885986 182.372253,857.078552 
	C182.326111,757.567078 182.318542,658.055603 182.309845,558.544128 
	C182.309814,558.214600 182.389877,557.885132 182.705566,557.232544 
z"/>
<path fill="#AAB3B8" opacity="1.000000" stroke="none" 
	d="
M846.406799,865.724670 
	C846.109253,865.235657 845.999756,864.406494 845.999939,863.577332 
	C846.022522,762.287415 846.053040,660.997559 846.086670,559.707642 
	C846.086975,558.708435 846.134521,557.709229 846.199158,556.219543 
	C846.541321,557.286926 847.109619,558.844849 847.109497,560.402710 
	C847.102295,659.745911 847.051270,759.089172 846.985046,858.432373 
	C846.983521,860.749817 846.763916,863.067139 846.406799,865.724670 
z"/>
<path fill="#4AABAD" opacity="1.000000" stroke="none" 
	d="
M792.622559,148.833649 
	C781.517883,149.356674 770.049927,149.864044 758.577148,150.024429 
	C746.954956,150.186920 735.327759,150.037796 723.703430,149.939850 
	C722.087219,149.926224 720.475098,149.424286 718.450439,149.084808 
	C718.988098,148.779938 719.937195,148.325272 720.884705,148.328583 
	C744.675598,148.411652 768.466431,148.542953 792.622559,148.833649 
z"/>
<path fill="#BFBFBE" opacity="1.000000" stroke="none" 
	d="
M502.958984,968.982483 
	C502.916412,968.290039 502.873840,967.597534 502.809143,966.558960 
	C516.907471,966.145447 531.027893,966.078003 545.622253,966.059998 
	C546.055786,966.846558 546.015442,967.583679 545.472900,968.666565 
	C530.966736,969.002319 516.962891,968.992432 502.958984,968.982483 
z"/>
<path fill="#B8B8B8" opacity="1.000000" stroke="none" 
	d="
M632.507263,966.024780 
	C630.252808,967.011047 627.555542,968.750732 624.807800,968.834473 
	C613.868591,969.168091 602.913513,968.985413 591.498901,969.006287 
	C590.998779,968.305969 590.963989,967.593323 590.903137,966.525269 
	C604.598450,966.118896 618.319824,966.068054 632.507263,966.024780 
z"/>
<path fill="#58767D" opacity="1.000000" stroke="none" 
	d="
M676.657227,188.979553 
	C676.964294,198.585785 677.095886,208.581207 677.090881,218.576538 
	C677.089355,221.651596 676.714294,224.726440 676.155090,227.957443 
	C675.877441,217.007965 675.938965,205.902298 676.048584,194.797073 
	C676.066467,192.986542 676.296997,191.178101 676.657227,188.979553 
z"/>
<path fill="#559FA3" opacity="1.000000" stroke="none" 
	d="
M830.221619,212.662811 
	C830.017273,203.629120 830.000732,194.235977 830.016418,184.395264 
	C830.316101,188.315460 830.760498,192.681458 830.804565,197.051483 
	C830.855896,202.133591 830.556580,207.219238 830.221619,212.662811 
z"/>
<path fill="#2A454C" opacity="1.000000" stroke="none" 
	d="
M830.053223,305.511963 
	C829.700439,305.052917 829.129700,304.127655 829.137085,303.207031 
	C829.241760,290.100189 829.424683,276.993958 829.778198,263.554352 
	C830.013184,277.163361 830.058716,291.105591 830.053223,305.511963 
z"/>
<path fill="#DCDCDB" opacity="1.000000" stroke="none" 
	d="
M502.846680,969.240479 
	C516.962891,968.992432 530.966736,969.002319 545.429199,969.033325 
	C544.371643,969.390930 542.857422,970.009216 541.339050,970.019775 
	C528.747009,970.107788 516.154236,970.083374 503.053864,970.061035 
	C502.608826,969.852234 502.671570,969.675354 502.846680,969.240479 
z"/>
<path fill="#D6D6D6" opacity="1.000000" stroke="none" 
	d="
M457.347839,968.087769 
	C457.808502,968.548218 457.843384,968.966431 457.810547,969.693604 
	C443.833832,970.002441 429.924927,970.002441 416.015991,970.002441 
	C416.012207,969.350159 416.008392,968.697815 416.004608,968.045532 
	C429.643768,968.045532 443.282898,968.045532 457.347839,968.087769 
z"/>
<path fill="#FEFFFF" opacity="1.000000" stroke="none" 
	d="
M651.235474,708.892090 
	C653.890137,716.601562 657.292175,723.879517 658.465576,731.500610 
	C660.667114,745.798401 658.291016,759.936096 650.455383,772.148621 
	C642.338318,784.799561 630.050110,791.872925 615.106873,794.967041 
	C600.958740,797.896484 588.365845,793.456299 575.937073,788.290405 
	C563.978516,783.320068 552.761719,776.470459 540.648743,771.987244 
	C519.556458,764.180542 499.181793,767.323853 479.297943,777.684021 
	C466.405518,784.401428 454.058044,793.229065 439.256805,795.024475 
	C425.542145,796.688110 411.879700,796.469666 399.495056,787.782288 
	C379.733398,773.920288 373.410461,755.022400 375.898682,731.899841 
	C377.993713,712.430908 388.819031,697.516846 400.564423,683.097351 
	C407.553406,674.517151 415.565613,666.765808 422.482971,658.133240 
	C430.684753,647.897766 438.269318,637.163147 446.004059,626.559204 
	C458.925049,608.845459 473.594910,593.033813 495.561066,587.080444 
	C509.463440,583.312500 523.721802,582.816101 537.989990,587.003052 
	C560.158447,593.508423 575.024963,608.862061 588.404907,626.515076 
	C599.622498,641.315247 611.449707,655.651978 622.910034,670.270020 
	C631.066772,680.674316 639.112610,691.166992 647.087097,701.711609 
	C648.666016,703.799438 649.694580,706.303467 651.235474,708.892090 
z"/>
<path fill="#FEFEFE" opacity="1.000000" stroke="none" 
	d="
M553.607544,452.593597 
	C559.474182,444.937866 567.696777,441.143555 576.205017,440.449249 
	C585.955688,439.653534 595.457214,442.525696 602.441162,450.649780 
	C611.955750,461.717712 615.578796,475.010345 616.779175,489.034760 
	C618.143127,504.969910 615.490173,520.456360 607.578552,534.417297 
	C602.967896,542.553406 596.877563,550.624634 587.550415,553.380981 
	C579.874268,555.649475 571.716003,557.201294 563.225830,553.547180 
	C556.588196,550.690430 550.553833,547.596619 545.869751,542.152710 
	C538.658386,533.771545 535.304260,523.781799 534.615234,512.936523 
	C533.193726,490.559540 538.953552,470.334656 553.607544,452.593597 
z"/>
<path fill="#FEFEFE" opacity="1.000000" stroke="none" 
	d="
M498.964294,522.191162 
	C496.101990,529.272522 494.172241,536.718445 488.675476,542.594971 
	C479.999207,551.870728 469.882843,556.487244 456.953400,555.052734 
	C441.779480,553.369263 432.837158,543.697449 426.500153,531.328979 
	C416.413513,511.642059 415.606964,490.902832 422.036011,469.914124 
	C424.893097,460.586578 429.976501,452.631042 437.783997,446.363861 
	C450.600403,436.075867 471.214600,440.944489 480.191376,451.443237 
	C491.511017,464.682068 497.736023,479.973846 499.721863,497.987091 
	C499.905914,504.868317 499.914673,510.947144 499.923401,517.026001 
	C499.923431,517.026001 499.996765,517.002258 499.660889,517.195190 
	C499.204803,518.989197 499.084534,520.590149 498.964294,522.191162 
z"/>
<path fill="#FEFEFE" opacity="1.000000" stroke="none" 
	d="
M346.766998,621.268005 
	C335.391479,601.985718 331.484131,581.455688 337.487518,560.390808 
	C343.473328,539.387512 359.404785,531.281555 380.310211,540.249023 
	C394.395844,546.291077 402.349762,558.476196 408.734222,571.734497 
	C413.024719,580.644470 415.493958,590.000854 416.112488,599.978638 
	C416.907623,612.805420 413.992035,624.423706 405.762695,634.245850 
	C399.631348,641.563904 384.228943,646.758301 374.803131,644.075684 
	C369.501892,642.566956 364.279480,640.915833 360.463715,637.531311 
	C355.306030,632.956604 351.407318,626.962402 346.766998,621.268005 
z"/>
<path fill="#FEFEFE" opacity="1.000000" stroke="none" 
	d="
M629.246277,633.714966 
	C620.318665,623.019897 618.697998,610.724854 619.495117,597.740662 
	C620.110657,587.713623 622.498169,578.051636 627.278381,569.346802 
	C635.342407,554.662170 645.414429,541.333008 662.929382,537.603394 
	C679.926758,533.983948 691.739563,541.571411 696.860107,559.381775 
	C701.495789,575.505676 700.119141,591.530884 694.324036,607.346008 
	C690.357849,618.169678 685.586365,628.433960 676.707458,636.000305 
	C662.829407,647.826904 644.384644,648.717285 630.678711,634.890564 
	C630.330322,634.539062 629.898804,634.270020 629.246277,633.714966 
z"/>
<path fill="#4A5B65" opacity="1.000000" stroke="none" 
	d="
M500.233917,516.734253 
	C499.914673,510.947144 499.905914,504.868317 499.920563,498.305176 
	C500.144104,504.028107 500.344269,510.235260 500.233917,516.734253 
z"/>
<path fill="#4A5B65" opacity="1.000000" stroke="none" 
	d="
M499.304657,521.971313 
	C499.084534,520.590149 499.204803,518.989197 499.648743,517.158630 
	C499.863342,518.536499 499.754181,520.143982 499.304657,521.971313 
z"/>
</svg>