<svg width="7" height="7" viewBox="0 0 7 7" fill="none" xmlns="http://www.w3.org/2000/svg">
<path fill-rule="evenodd" clip-rule="evenodd" d="M4.49132 1.10025C3.92151 0.966585 3.32849 0.966585 2.75868 1.10025C1.93579 1.29327 1.29327 1.93579 1.10025 2.75868C0.966585 3.32849 0.966585 3.92151 1.10025 4.49133C1.29327 5.31421 1.93579 5.95673 2.75868 6.14976C3.32849 6.28342 3.92151 6.28342 4.49132 6.14976C5.31421 5.95673 5.95673 5.31421 6.14976 4.49132C6.28342 3.92151 6.28342 3.32849 6.14976 2.75868C5.95673 1.93579 5.31421 1.29327 4.49132 1.10025ZM3.80639 2.52988C3.92755 2.40871 4.09189 2.34064 4.26325 2.34064C4.62009 2.34064 4.90936 2.62991 4.90936 2.98675C4.90936 3.15811 4.84129 3.32245 4.72012 3.44362L3.99105 4.17269C3.65262 4.51112 3.22858 4.75121 2.76426 4.86729L2.62334 4.90251C2.45675 4.94416 2.30584 4.79326 2.34749 4.62666L2.38272 4.48574C2.4988 4.02143 2.73889 3.59738 3.07731 3.25896L3.80639 2.52988ZM4.26325 2.67569C4.18076 2.67569 4.10164 2.70846 4.0433 2.7668L3.93756 2.87254C3.92714 2.95568 3.96867 3.07173 4.07347 3.17653C4.17827 3.28133 4.29432 3.32286 4.37747 3.31244L4.4832 3.2067C4.54154 3.14837 4.57431 3.06925 4.57431 2.98675C4.57431 2.81496 4.43505 2.67569 4.26325 2.67569ZM4.09666 3.59324C3.99707 3.54943 3.90749 3.48438 3.83656 3.41345C3.76562 3.34251 3.70057 3.25294 3.65676 3.15334L3.31423 3.49587C3.02687 3.78323 2.82071 4.14129 2.71637 4.53363C3.10872 4.42929 3.46677 4.22313 3.75413 3.93577L4.09666 3.59324Z" fill="#04BFAD"/>
</svg>
