<svg width="7" height="7" viewBox="0 0 7 7" fill="none" xmlns="http://www.w3.org/2000/svg">
<g clip-path="url(#clip0_52_358)">
<path fill-rule="evenodd" clip-rule="evenodd" d="M2.63368 0.975246C3.20349 0.841585 3.79651 0.841585 4.36632 0.975245C5.18921 1.16827 5.83173 1.81079 6.02476 2.63368C6.15842 3.20349 6.15842 3.79651 6.02476 4.36632C5.83173 5.18921 5.18921 5.83173 4.36632 6.02476C3.79651 6.15842 3.20349 6.15841 2.63368 6.02475C1.81079 5.83173 1.16827 5.18921 0.975246 4.36632C0.841585 3.79651 0.841585 3.20349 0.975246 2.63368C1.16827 1.81079 1.81079 1.16827 2.63368 0.975246ZM3.12488 2.88796C3.05945 2.82254 2.95338 2.82254 2.88796 2.88796C2.82254 2.95338 2.82254 3.05945 2.88796 3.12488L3.26308 3.49999L2.88796 3.87511C2.82254 3.94053 2.82254 4.0466 2.88796 4.11203C2.95338 4.17745 3.05945 4.17745 3.12488 4.11203L3.49999 3.73691L3.87511 4.11203C3.94053 4.17745 4.04661 4.17745 4.11203 4.11203C4.17745 4.0466 4.17745 3.94053 4.11203 3.87511L3.73691 3.49999L4.11203 3.12488C4.17745 3.05945 4.17745 2.95338 4.11203 2.88796C4.04661 2.82254 3.94053 2.82254 3.87511 2.88796L3.49999 3.26308L3.12488 2.88796Z" fill="#F34949"/>
</g>
<defs>
<clipPath id="clip0_52_358">
<rect width="7" height="7" fill="white"/>
</clipPath>
</defs>
</svg>
