<?xml version="1.0" encoding="UTF-8"?>
<!DOCTYPE svg PUBLIC "-//W3C//DTD SVG 1.1//EN" "http://www.w3.org/Graphics/SVG/1.1/DTD/svg11.dtd">
<svg xmlns="http://www.w3.org/2000/svg" version="1.1" width="300px" height="300px" style="shape-rendering:geometricPrecision; text-rendering:geometricPrecision; image-rendering:optimizeQuality; fill-rule:evenodd; clip-rule:evenodd" xmlns:xlink="http://www.w3.org/1999/xlink">
<g><path style="opacity:0.18" fill="#c2fcfc" d="M 239.5,49.5 C 236.946,48.3944 234.279,47.561 231.5,47C 223.648,46.8189 215.981,46.6522 208.5,46.5C 208.667,34.8286 208.5,23.1619 208,11.5C 205.812,14.5672 203.645,17.5672 201.5,20.5C 202.463,15.5614 205.13,12.2281 209.5,10.5C 209.5,22.5 209.5,34.5 209.5,46.5C 217.144,45.52 224.811,45.3533 232.5,46C 235.445,46.139 237.779,47.3057 239.5,49.5 Z"/></g>
<g><path style="opacity:0.11" fill="#c3fafa" d="M 201.5,20.5 C 200.921,23.3311 199.588,25.6644 197.5,27.5C 198.079,24.6689 199.412,22.3356 201.5,20.5 Z"/></g>
<g><path style="opacity:1" fill="#32bec0" d="M 208.5,46.5 C 207.883,46.3893 207.383,46.056 207,45.5C 206.667,37.8333 206.333,30.1667 206,22.5C 205,22.1667 204,21.8333 203,21.5C 202.027,23.3921 201.36,25.3921 201,27.5C 196.499,32.4932 192.999,38.1599 190.5,44.5C 189.148,45.5244 187.815,46.5244 186.5,47.5C 186.5,46.8333 186.5,46.1667 186.5,45.5C 188.25,44.3406 189.25,42.674 189.5,40.5C 190.906,40.0269 191.573,39.0269 191.5,37.5C 191.328,36.5084 191.662,35.8417 192.5,35.5C 194.25,34.3406 195.25,32.674 195.5,30.5C 196.906,30.0269 197.573,29.0269 197.5,27.5C 199.588,25.6644 200.921,23.3311 201.5,20.5C 203.645,17.5672 205.812,14.5672 208,11.5C 208.5,23.1619 208.667,34.8286 208.5,46.5 Z"/></g>
<g><path style="opacity:0.145" fill="#b7fafa" d="M 197.5,27.5 C 197.573,29.0269 196.906,30.0269 195.5,30.5C 195.427,28.9731 196.094,27.9731 197.5,27.5 Z"/></g>
<g><path style="opacity:1" fill="#04cbcf" d="M 208.5,46.5 C 215.981,46.6522 223.648,46.8189 231.5,47C 234.279,47.561 236.946,48.3944 239.5,49.5C 239.5,50.1667 239.5,50.8333 239.5,51.5C 241.855,54.876 243.688,58.5427 245,62.5C 246.049,64.3844 247.549,65.7177 249.5,66.5C 255.631,67.83 262.131,68.4966 269,68.5C 275.744,68.491 282.411,68.1576 289,67.5C 289.855,72.4178 288.688,76.7511 285.5,80.5C 285.833,81.1667 286.167,81.8333 286.5,82.5C 284.646,87.5421 282.312,92.2088 279.5,96.5C 279.5,97.1667 279.5,97.8333 279.5,98.5C 279.167,99.5 278.5,100.167 277.5,100.5C 275.973,100.427 274.973,101.094 274.5,102.5C 272.847,102.66 271.514,103.326 270.5,104.5C 268.194,104.993 265.861,105.326 263.5,105.5C 255.456,105.871 247.456,106.704 239.5,108C 236.853,109.299 234.186,110.632 231.5,112C 230.177,112.816 229.511,113.983 229.5,115.5C 228.504,115.414 227.671,115.748 227,116.5C 226.194,119.446 224.861,122.112 223,124.5C 222.333,171.833 222.333,219.167 223,266.5C 226.079,268.112 228.912,271.112 231.5,275.5C 231.5,279.167 231.5,282.833 231.5,286.5C 222.5,286.5 213.5,286.5 204.5,286.5C 204.219,282.812 203.719,279.145 203,275.5C 202.29,274.027 201.124,273.36 199.5,273.5C 198.486,272.326 197.153,271.66 195.5,271.5C 195.333,238.165 195.5,204.832 196,171.5C 197.707,170.862 199.54,170.862 201.5,171.5C 201.778,169.654 201.111,168.32 199.5,167.5C 197.591,168.348 195.591,168.682 193.5,168.5C 194.722,167.063 194.722,165.563 193.5,164C 194.482,161.991 195.815,161.491 197.5,162.5C 200.955,161.233 204.455,160.233 208,159.5C 208.781,158.056 208.614,156.723 207.5,155.5C 206.358,154.174 205.024,153.174 203.5,152.5C 202.833,152.5 202.5,152.167 202.5,151.5C 199.471,144.942 194.471,141.442 187.5,141C 186,142.5 184.5,144 183,145.5C 182.667,145.167 182.333,144.833 182,144.5C 180.869,147.445 180.036,150.445 179.5,153.5C 169.176,154.078 158.843,154.412 148.5,154.5C 147.079,149.521 144.079,145.687 139.5,143C 136.053,142.808 132.72,143.475 129.5,145C 130.252,145.671 130.586,146.504 130.5,147.5C 129.167,148.167 128.167,149.167 127.5,150.5C 127.5,151.167 127.167,151.5 126.5,151.5C 123.5,152.5 121.5,154.5 120.5,157.5C 119.596,158.209 119.263,159.209 119.5,160.5C 123.968,161.174 128.468,162.174 133,163.5C 133.049,168.202 132.549,172.869 131.5,177.5C 131.167,178.833 130.833,180.167 130.5,181.5C 129.094,181.973 128.427,182.973 128.5,184.5C 125.5,186.833 122.833,189.5 120.5,192.5C 117.883,193.786 115.55,195.453 113.5,197.5C 109.024,198.657 105.358,200.99 102.5,204.5C 102.5,205.167 102.167,205.5 101.5,205.5C 99.5956,205.738 98.2623,206.738 97.5,208.5C 93.8333,210.167 91.1667,212.833 89.5,216.5C 89.1667,216.5 88.8333,216.5 88.5,216.5C 87.6715,215.668 86.8382,216.001 86,217.5C 80.9691,228.08 79.6358,239.08 82,250.5C 82.4828,249.552 82.6495,248.552 82.5,247.5C 82.8333,247.5 83.1667,247.5 83.5,247.5C 82.4627,255.696 84.1294,263.196 88.5,270C 79.4851,271.139 70.4851,271.973 61.5,272.5C 59.7354,273.461 57.7354,273.795 55.5,273.5C 53.4078,273.561 51.9078,274.561 51,276.5C 50.5017,279.817 50.335,283.15 50.5,286.5C 39.8281,286.667 29.1615,286.5 18.5,286C 16.9221,284.906 15.2554,284.072 13.5,283.5C 11.8058,282.473 10.4725,281.139 9.5,279.5C 9.19924,274.055 11.1992,269.722 15.5,266.5C 25.6736,266.161 35.6736,265.494 45.5,264.5C 46.2389,264.631 46.9056,264.464 47.5,264C 45.4146,261.163 45.0813,258.163 46.5,255C 45.552,254.517 44.552,254.351 43.5,254.5C 40.6235,244.816 38.9569,234.816 38.5,224.5C 38.763,216.063 39.763,207.73 41.5,199.5C 41.5,197.833 41.5,196.167 41.5,194.5C 42.1174,194.389 42.6174,194.056 43,193.5C 43.8494,190.479 44.6827,187.479 45.5,184.5C 45.6596,182.847 46.3263,181.514 47.5,180.5C 49.664,178.178 51.3307,175.511 52.5,172.5C 53.5,171.833 54.5,171.167 55.5,170.5C 61.0196,165.255 66.6863,160.255 72.5,155.5C 72.8333,154.833 73.1667,154.167 73.5,153.5C 73.8417,152.662 74.5084,152.328 75.5,152.5C 76.8734,152.657 78.2068,152.49 79.5,152C 81.7582,151.124 83.7582,149.957 85.5,148.5C 90.8257,147.921 95.8257,146.587 100.5,144.5C 106.249,143.813 111.916,142.647 117.5,141C 118.056,140.617 118.389,140.117 118.5,139.5C 121.393,139.969 123.393,138.969 124.5,136.5C 127.833,135.167 130.167,132.833 131.5,129.5C 133.587,128.415 134.92,126.749 135.5,124.5C 136.906,124.027 137.573,123.027 137.5,121.5C 139.262,120.738 140.262,119.404 140.5,117.5C 141.906,117.027 142.573,116.027 142.5,114.5C 143.906,114.027 144.573,113.027 144.5,111.5C 145.906,111.027 146.573,110.027 146.5,108.5C 148.262,107.738 149.262,106.404 149.5,104.5C 150.906,104.027 151.573,103.027 151.5,101.5C 154.579,98.3495 156.913,94.6829 158.5,90.5C 159.906,90.0269 160.573,89.0269 160.5,87.5C 162.25,86.3406 163.25,84.674 163.5,82.5C 164.906,82.0269 165.573,81.0269 165.5,79.5C 166.906,79.0269 167.573,78.0269 167.5,76.5C 169.25,75.3406 170.25,73.674 170.5,71.5C 171.906,71.0269 172.573,70.0269 172.5,68.5C 172.328,67.5084 172.662,66.8417 173.5,66.5C 174.906,66.0269 175.573,65.0269 175.5,63.5C 177.95,61.3709 179.617,58.7043 180.5,55.5C 182.25,54.3406 183.25,52.674 183.5,50.5C 184.728,49.6935 185.728,48.6935 186.5,47.5C 187.815,46.5244 189.148,45.5244 190.5,44.5C 192.999,38.1599 196.499,32.4932 201,27.5C 201.36,25.3921 202.027,23.3921 203,21.5C 204,21.8333 205,22.1667 206,22.5C 206.333,30.1667 206.667,37.8333 207,45.5C 207.383,46.056 207.883,46.3893 208.5,46.5 Z"/></g>
<g><path style="opacity:0.098" fill="#c8fdfd" d="M 195.5,30.5 C 195.25,32.674 194.25,34.3406 192.5,35.5C 192.75,33.326 193.75,31.6594 195.5,30.5 Z"/></g>
<g><path style="opacity:0.176" fill="#affdfc" d="M 191.5,37.5 C 191.573,39.0269 190.906,40.0269 189.5,40.5C 189.427,38.9731 190.094,37.9731 191.5,37.5 Z"/></g>
<g><path style="opacity:0.118" fill="#cafcfd" d="M 189.5,40.5 C 189.25,42.674 188.25,44.3406 186.5,45.5C 186.75,43.326 187.75,41.6594 189.5,40.5 Z"/></g>
<g><path style="opacity:0.09" fill="#cbfcfc" d="M 186.5,45.5 C 186.5,46.1667 186.5,46.8333 186.5,47.5C 185.728,48.6935 184.728,49.6935 183.5,50.5C 183.75,48.326 184.75,46.6594 186.5,45.5 Z"/></g>
<g><path style="opacity:0.118" fill="#c2fafc" d="M 183.5,50.5 C 183.25,52.674 182.25,54.3406 180.5,55.5C 180.75,53.326 181.75,51.6594 183.5,50.5 Z"/></g>
<g><path style="opacity:0.325" fill="#b3f7f7" d="M 239.5,49.5 C 241.914,50.9108 243.581,52.9108 244.5,55.5C 242.833,54.1667 241.167,52.8333 239.5,51.5C 239.5,50.8333 239.5,50.1667 239.5,49.5 Z"/></g>
<g><path style="opacity:0.114" fill="#c6fafa" d="M 180.5,55.5 C 179.617,58.7043 177.95,61.3709 175.5,63.5C 176.383,60.2957 178.05,57.6291 180.5,55.5 Z"/></g>
<g><path style="opacity:0.024" fill="#bef9fa" d="M 244.5,55.5 C 246.924,58.0078 248.59,61.0078 249.5,64.5C 247.076,61.9922 245.41,58.9922 244.5,55.5 Z"/></g>
<g><path style="opacity:1" fill="#2ebcbe" d="M 239.5,51.5 C 241.167,52.8333 242.833,54.1667 244.5,55.5C 245.41,58.9922 247.076,61.9922 249.5,64.5C 249.5,65.1667 249.5,65.8333 249.5,66.5C 247.549,65.7177 246.049,64.3844 245,62.5C 243.688,58.5427 241.855,54.876 239.5,51.5 Z"/></g>
<g><path style="opacity:0.129" fill="#ccfcfc" d="M 175.5,63.5 C 175.573,65.0269 174.906,66.0269 173.5,66.5C 173.427,64.9731 174.094,63.9731 175.5,63.5 Z"/></g>
<g><path style="opacity:0.118" fill="#c5fdfc" d="M 249.5,64.5 C 263.755,65.4822 278.088,65.8156 292.5,65.5C 292.469,70.6249 291.636,75.6249 290,80.5C 289.478,83.2813 288.311,85.6146 286.5,87.5C 288.799,80.6738 290.466,73.6738 291.5,66.5C 277.5,66.5 263.5,66.5 249.5,66.5C 249.5,65.8333 249.5,65.1667 249.5,64.5 Z"/></g>
<g><path style="opacity:0.118" fill="#bbfcfc" d="M 172.5,68.5 C 172.573,70.0269 171.906,71.0269 170.5,71.5C 170.427,69.9731 171.094,68.9731 172.5,68.5 Z"/></g>
<g><path style="opacity:0.102" fill="#c2fbfb" d="M 170.5,71.5 C 170.25,73.674 169.25,75.3406 167.5,76.5C 167.75,74.326 168.75,72.6594 170.5,71.5 Z"/></g>
<g><path style="opacity:0.153" fill="#b7fafa" d="M 167.5,76.5 C 167.573,78.0269 166.906,79.0269 165.5,79.5C 165.427,77.9731 166.094,76.9731 167.5,76.5 Z"/></g>
<g><path style="opacity:0.122" fill="#ccfcfb" d="M 165.5,79.5 C 165.573,81.0269 164.906,82.0269 163.5,82.5C 163.427,80.9731 164.094,79.9731 165.5,79.5 Z"/></g>
<g><path style="opacity:0.102" fill="#ccfbfc" d="M 163.5,82.5 C 163.25,84.674 162.25,86.3406 160.5,87.5C 160.75,85.326 161.75,83.6594 163.5,82.5 Z"/></g>
<g><path style="opacity:1" fill="#39bec1" d="M 249.5,66.5 C 263.5,66.5 277.5,66.5 291.5,66.5C 290.466,73.6738 288.799,80.6738 286.5,87.5C 285.326,88.5137 284.66,89.847 284.5,91.5C 283.061,93.3603 281.395,95.027 279.5,96.5C 282.312,92.2088 284.646,87.5421 286.5,82.5C 286.167,81.8333 285.833,81.1667 285.5,80.5C 288.688,76.7511 289.855,72.4178 289,67.5C 282.411,68.1576 275.744,68.491 269,68.5C 262.131,68.4966 255.631,67.83 249.5,66.5 Z"/></g>
<g><path style="opacity:0.145" fill="#aff8f8" d="M 160.5,87.5 C 160.573,89.0269 159.906,90.0269 158.5,90.5C 158.427,88.9731 159.094,87.9731 160.5,87.5 Z"/></g>
<g><path style="opacity:0.086" fill="#cbfcfe" d="M 286.5,87.5 C 286.771,89.3797 286.104,90.713 284.5,91.5C 284.66,89.847 285.326,88.5137 286.5,87.5 Z"/></g>
<g><path style="opacity:0.11" fill="#b3f7f8" d="M 158.5,90.5 C 156.913,94.6829 154.579,98.3495 151.5,101.5C 153.087,97.3171 155.421,93.6505 158.5,90.5 Z"/></g>
<g><path style="opacity:0.082" fill="#b7f9f8" d="M 284.5,91.5 C 283.99,94.6743 282.323,97.0077 279.5,98.5C 279.5,97.8333 279.5,97.1667 279.5,96.5C 281.395,95.027 283.061,93.3603 284.5,91.5 Z"/></g>
<g><path style="opacity:0.024" fill="#ccfdfe" d="M 277.5,100.5 C 277.027,101.906 276.027,102.573 274.5,102.5C 274.973,101.094 275.973,100.427 277.5,100.5 Z"/></g>
<g><path style="opacity:0.271" fill="#abf8f9" d="M 151.5,101.5 C 151.573,103.027 150.906,104.027 149.5,104.5C 149.427,102.973 150.094,101.973 151.5,101.5 Z"/></g>
<g><path style="opacity:0.078" fill="#ccfffe" d="M 274.5,102.5 C 273.713,104.104 272.38,104.771 270.5,104.5C 271.514,103.326 272.847,102.66 274.5,102.5 Z"/></g>
<g><path style="opacity:0.275" fill="#b9f9f9" d="M 149.5,104.5 C 149.262,106.404 148.262,107.738 146.5,108.5C 146.738,106.596 147.738,105.262 149.5,104.5 Z"/></g>
<g><path style="opacity:0.055" fill="#c4f9fb" d="M 270.5,104.5 C 267.865,106.328 264.865,107.495 261.5,108C 255.883,109.052 250.216,109.718 244.5,110C 240.631,110.605 236.965,111.771 233.5,113.5C 235.649,111.254 238.316,109.754 241.5,109C 247.84,108.399 254.174,107.733 260.5,107C 261.737,106.768 262.737,106.268 263.5,105.5C 265.861,105.326 268.194,104.993 270.5,104.5 Z"/></g>
<g><path style="opacity:1" fill="#35bcbd" d="M 263.5,105.5 C 262.737,106.268 261.737,106.768 260.5,107C 254.174,107.733 247.84,108.399 241.5,109C 238.316,109.754 235.649,111.254 233.5,113.5C 231.938,113.733 230.605,114.4 229.5,115.5C 229.511,113.983 230.177,112.816 231.5,112C 234.186,110.632 236.853,109.299 239.5,108C 247.456,106.704 255.456,105.871 263.5,105.5 Z"/></g>
<g><path style="opacity:0.102" fill="#ccfffe" d="M 146.5,108.5 C 146.573,110.027 145.906,111.027 144.5,111.5C 144.427,109.973 145.094,108.973 146.5,108.5 Z"/></g>
<g><path style="opacity:0.145" fill="#b2fbfd" d="M 144.5,111.5 C 144.573,113.027 143.906,114.027 142.5,114.5C 142.427,112.973 143.094,111.973 144.5,111.5 Z"/></g>
<g><path style="opacity:0.035" fill="#b5fbfb" d="M 233.5,113.5 C 232.167,115.5 230.5,117.167 228.5,118.5C 228.557,117.391 228.89,116.391 229.5,115.5C 230.605,114.4 231.938,113.733 233.5,113.5 Z"/></g>
<g><path style="opacity:0.176" fill="#b5fbfb" d="M 142.5,114.5 C 142.573,116.027 141.906,117.027 140.5,117.5C 140.427,115.973 141.094,114.973 142.5,114.5 Z"/></g>
<g><path style="opacity:0.282" fill="#aff9f9" d="M 140.5,117.5 C 140.262,119.404 139.262,120.738 137.5,121.5C 137.738,119.596 138.738,118.262 140.5,117.5 Z"/></g>
<g><path style="opacity:0.451" fill="#aef2f3" d="M 137.5,121.5 C 137.573,123.027 136.906,124.027 135.5,124.5C 135.427,122.973 136.094,121.973 137.5,121.5 Z"/></g>
<g><path style="opacity:0.192" fill="#a9f5f6" d="M 135.5,124.5 C 134.92,126.749 133.587,128.415 131.5,129.5C 132.08,127.251 133.413,125.585 135.5,124.5 Z"/></g>
<g><path style="opacity:1" fill="#17c1c5" d="M 229.5,115.5 C 228.89,116.391 228.557,117.391 228.5,118.5C 226.415,120.684 225.415,123.351 225.5,126.5C 224.501,172.664 224.168,218.997 224.5,265.5C 227.614,265.555 229.948,266.888 231.5,269.5C 231.5,271.5 231.5,273.5 231.5,275.5C 228.912,271.112 226.079,268.112 223,266.5C 222.333,219.167 222.333,171.833 223,124.5C 224.861,122.112 226.194,119.446 227,116.5C 227.671,115.748 228.504,115.414 229.5,115.5 Z"/></g>
<g><path style="opacity:0.514" fill="#97eae9" d="M 131.5,129.5 C 130.167,132.833 127.833,135.167 124.5,136.5C 126.5,133.833 128.833,131.5 131.5,129.5 Z"/></g>
<g><path style="opacity:0.827" fill="#83d8db" d="M 124.5,136.5 C 123.393,138.969 121.393,139.969 118.5,139.5C 120.181,137.992 122.181,136.992 124.5,136.5 Z"/></g>
<g><path style="opacity:0.486" fill="#aef3f2" d="M 118.5,139.5 C 118.389,140.117 118.056,140.617 117.5,141C 111.916,142.647 106.249,143.813 100.5,144.5C 106.308,142.545 112.308,140.878 118.5,139.5 Z"/></g>
<g><path style="opacity:0.561" fill="#b3f3f7" d="M 100.5,144.5 C 95.8257,146.587 90.8257,147.921 85.5,148.5C 90.0892,145.976 95.0892,144.642 100.5,144.5 Z"/></g>
<g><path style="opacity:0.024" fill="#cffdfb" d="M 130.5,147.5 C 130.833,147.5 131.167,147.5 131.5,147.5C 130.738,149.262 129.404,150.262 127.5,150.5C 128.167,149.167 129.167,148.167 130.5,147.5 Z"/></g>
<g><path style="opacity:0.031" fill="#d3fcfd" d="M 141.5,146.5 C 143.262,147.262 144.262,148.596 144.5,150.5C 142.738,149.738 141.738,148.404 141.5,146.5 Z"/></g>
<g><path style="opacity:0.827" fill="#97e6e4" d="M 85.5,148.5 C 83.7582,149.957 81.7582,151.124 79.5,152C 78.2068,152.49 76.8734,152.657 75.5,152.5C 78.3695,150.206 81.7029,148.872 85.5,148.5 Z"/></g>
<g><path style="opacity:0.035" fill="#bcfdfd" d="M 126.5,151.5 C 124.833,153.833 122.833,155.833 120.5,157.5C 121.5,154.5 123.5,152.5 126.5,151.5 Z"/></g>
<g><path style="opacity:0.027" fill="#c3fefe" d="M 201.5,151.5 C 201.833,151.5 202.167,151.5 202.5,151.5C 202.5,152.167 202.833,152.5 203.5,152.5C 203.5,153.167 203.5,153.833 203.5,154.5C 202.094,154.027 201.427,153.027 201.5,151.5 Z"/></g>
<g><path style="opacity:1" fill="#36bfc2" d="M 202.5,151.5 C 202.167,151.5 201.833,151.5 201.5,151.5C 200.167,150.833 199.167,149.833 198.5,148.5C 197.738,146.738 196.404,145.738 194.5,145.5C 193.508,145.672 192.842,145.338 192.5,144.5C 187.505,142.444 184.171,144.111 182.5,149.5C 181.069,150.78 180.402,152.447 180.5,154.5C 178.901,154.232 177.568,154.566 176.5,155.5C 166.81,155.832 157.144,155.498 147.5,154.5C 146.965,152.739 145.965,151.406 144.5,150.5C 144.262,148.596 143.262,147.262 141.5,146.5C 138.02,142.846 134.687,143.179 131.5,147.5C 131.167,147.5 130.833,147.5 130.5,147.5C 130.586,146.504 130.252,145.671 129.5,145C 132.72,143.475 136.053,142.808 139.5,143C 144.079,145.687 147.079,149.521 148.5,154.5C 158.843,154.412 169.176,154.078 179.5,153.5C 180.036,150.445 180.869,147.445 182,144.5C 182.333,144.833 182.667,145.167 183,145.5C 184.5,144 186,142.5 187.5,141C 194.471,141.442 199.471,144.942 202.5,151.5 Z"/></g>
<g><path style="opacity:0.38" fill="#befcfb" d="M 194.5,145.5 C 196.404,145.738 197.738,146.738 198.5,148.5C 196.596,148.262 195.262,147.262 194.5,145.5 Z"/></g>
<g><path style="opacity:0.051" fill="#c2fefd" d="M 192.5,144.5 C 190.801,144.34 189.134,144.506 187.5,145C 185.963,146.707 184.296,148.207 182.5,149.5C 184.171,144.111 187.505,142.444 192.5,144.5 Z"/></g>
<g><path style="opacity:0.096" fill="#bcfcfc" d="M 141.5,146.5 C 138.03,145.197 134.697,145.531 131.5,147.5C 134.687,143.179 138.02,142.846 141.5,146.5 Z"/></g>
<g><path style="opacity:0.102" fill="#ccfcfd" d="M 73.5,153.5 C 73.1667,154.167 72.8333,154.833 72.5,155.5C 71.1667,155.833 69.8333,156.167 68.5,156.5C 69.6594,154.75 71.326,153.75 73.5,153.5 Z"/></g>
<g><path style="opacity:0.624" fill="#a8eded" d="M 182.5,149.5 C 182.741,151.898 182.074,153.898 180.5,155.5C 179.167,155.5 177.833,155.5 176.5,155.5C 177.568,154.566 178.901,154.232 180.5,154.5C 180.402,152.447 181.069,150.78 182.5,149.5 Z"/></g>
<g><path style="opacity:0.098" fill="#c3fafb" d="M 144.5,150.5 C 145.965,151.406 146.965,152.739 147.5,154.5C 157.144,155.498 166.81,155.832 176.5,155.5C 177.833,155.5 179.167,155.5 180.5,155.5C 169.673,156.706 158.673,157.206 147.5,157C 146.086,155.007 145.086,152.84 144.5,150.5 Z"/></g>
<g><path style="opacity:0.337" fill="#b4f7f6" d="M 68.5,156.5 C 67.7377,158.262 66.4044,159.262 64.5,159.5C 65.2623,157.738 66.5956,156.738 68.5,156.5 Z"/></g>
<g><path style="opacity:0.647" fill="#9af0f0" d="M 203.5,154.5 C 205.104,155.287 205.771,156.62 205.5,158.5C 201.616,158.424 197.95,159.09 194.5,160.5C 196.734,158.554 199.401,157.387 202.5,157C 203.252,156.329 203.586,155.496 203.5,154.5 Z"/></g>
<g><path style="opacity:0.427" fill="#b2f5f9" d="M 120.5,157.5 C 123.833,158.5 127.167,159.5 130.5,160.5C 126.833,160.5 123.167,160.5 119.5,160.5C 119.263,159.209 119.596,158.209 120.5,157.5 Z"/></g>
<g><path style="opacity:0.976" fill="#4dc1c1" d="M 119.5,160.5 C 123.167,160.5 126.833,160.5 130.5,160.5C 132.099,160.232 133.432,160.566 134.5,161.5C 134.665,165.182 134.499,168.848 134,172.5C 133.626,174.491 132.793,176.158 131.5,177.5C 132.549,172.869 133.049,168.202 133,163.5C 128.468,162.174 123.968,161.174 119.5,160.5 Z"/></g>
<g><path style="opacity:1" fill="#29b8ba" d="M 72.5,155.5 C 66.6863,160.255 61.0196,165.255 55.5,170.5C 55.5,169.833 55.5,169.167 55.5,168.5C 58.8333,165.833 61.8333,162.833 64.5,159.5C 66.4044,159.262 67.7377,158.262 68.5,156.5C 69.8333,156.167 71.1667,155.833 72.5,155.5 Z"/></g>
<g><path style="opacity:0.322" fill="#b8fbfc" d="M 64.5,159.5 C 61.8333,162.833 58.8333,165.833 55.5,168.5C 57.5,164.5 60.5,161.5 64.5,159.5 Z"/></g>
<g><path style="opacity:0.596" fill="#a2efec" d="M 55.5,168.5 C 55.5,169.167 55.5,169.833 55.5,170.5C 54.5,171.167 53.5,171.833 52.5,172.5C 52.7376,170.596 53.7376,169.262 55.5,168.5 Z"/></g>
<g><path style="opacity:1" fill="#04cccb" d="M 195.5,271.5 C 195.19,272.738 194.69,272.738 194,271.5C 193.5,237.168 193.333,202.835 193.5,168.5C 195.591,168.682 197.591,168.348 199.5,167.5C 201.111,168.32 201.778,169.654 201.5,171.5C 199.54,170.862 197.707,170.862 196,171.5C 195.5,204.832 195.333,238.165 195.5,271.5 Z"/></g>
<g><path style="opacity:0.106" fill="#cbfdfd" d="M 134.5,161.5 C 136.326,163.455 136.826,165.788 136,168.5C 135.601,173.555 133.768,177.889 130.5,181.5C 130.833,180.167 131.167,178.833 131.5,177.5C 132.793,176.158 133.626,174.491 134,172.5C 134.499,168.848 134.665,165.182 134.5,161.5 Z"/></g>
<g><path style="opacity:1" fill="#30c2c5" d="M 203.5,152.5 C 205.024,153.174 206.358,154.174 207.5,155.5C 208.614,156.723 208.781,158.056 208,159.5C 204.455,160.233 200.955,161.233 197.5,162.5C 195.815,161.491 194.482,161.991 193.5,164C 194.722,165.563 194.722,167.063 193.5,168.5C 193.333,202.835 193.5,237.168 194,271.5C 194.69,272.738 195.19,272.738 195.5,271.5C 197.153,271.66 198.486,272.326 199.5,273.5C 196.833,273.5 194.167,273.5 191.5,273.5C 191.333,236.498 191.5,199.498 192,162.5C 192.995,161.934 193.828,161.267 194.5,160.5C 197.95,159.09 201.616,158.424 205.5,158.5C 205.771,156.62 205.104,155.287 203.5,154.5C 203.5,153.833 203.5,153.167 203.5,152.5 Z"/></g>
<g><path style="opacity:0.114" fill="#b8f7f8" d="M 52.5,172.5 C 51.3307,175.511 49.664,178.178 47.5,180.5C 48.1695,177.151 49.8361,174.484 52.5,172.5 Z"/></g>
<g><path style="opacity:0.082" fill="#befdfc" d="M 130.5,181.5 C 130.573,183.027 129.906,184.027 128.5,184.5C 128.427,182.973 129.094,181.973 130.5,181.5 Z"/></g>
<g><path style="opacity:0.188" fill="#bff8f9" d="M 165.5,190.5 C 169.397,181.394 166.397,178.228 156.5,181C 155.811,185.462 157.478,188.962 161.5,191.5C 160.671,198.499 158.171,199.166 154,193.5C 153.805,194.819 153.972,196.153 154.5,197.5C 151.296,195.55 151.129,193.55 154,191.5C 155.674,192.676 157.174,194.01 158.5,195.5C 159.5,195.167 160.167,194.5 160.5,193.5C 150.32,180.214 153.153,176.214 169,181.5C 169.301,185.101 168.134,188.101 165.5,190.5 Z"/></g>
<g><path style="opacity:0.114" fill="#b4f4f6" d="M 45.5,184.5 C 44.6827,187.479 43.8494,190.479 43,193.5C 42.6174,194.056 42.1174,194.389 41.5,194.5C 41.8723,190.703 43.2057,187.37 45.5,184.5 Z"/></g>
<g><path style="opacity:1" fill="#24c4c6" d="M 165.5,190.5 C 163.896,191.287 163.229,192.62 163.5,194.5C 162.833,193.5 162.167,192.5 161.5,191.5C 157.478,188.962 155.811,185.462 156.5,181C 166.397,178.228 169.397,181.394 165.5,190.5 Z"/></g>
<g><path style="opacity:0.027" fill="#d2feff" d="M 128.5,184.5 C 126.833,188.167 124.167,190.833 120.5,192.5C 122.833,189.5 125.5,186.833 128.5,184.5 Z"/></g>
<g><path style="opacity:0.104" fill="#d7fefd" d="M 171.5,192.5 C 172.93,194.455 172.597,196.121 170.5,197.5C 171.038,195.883 171.371,194.216 171.5,192.5 Z"/></g>
<g><path style="opacity:0.082" fill="#cafcfd" d="M 120.5,192.5 C 119.008,195.323 116.674,196.99 113.5,197.5C 115.55,195.453 117.883,193.786 120.5,192.5 Z"/></g>
<g><path style="opacity:0.902" fill="#57b0ad" d="M 161.5,191.5 C 162.167,192.5 162.833,193.5 163.5,194.5C 164.145,195.812 165.145,196.812 166.5,197.5C 168.592,196.175 170.259,194.509 171.5,192.5C 171.371,194.216 171.038,195.883 170.5,197.5C 170.5,198.167 170.167,198.5 169.5,198.5C 166.843,198.838 164.51,198.171 162.5,196.5C 160.09,198.768 157.423,199.101 154.5,197.5C 153.972,196.153 153.805,194.819 154,193.5C 158.171,199.166 160.671,198.499 161.5,191.5 Z"/></g>
<g><path style="opacity:0.067" fill="#cff9fa" d="M 165.5,190.5 C 163.913,192.619 164.246,194.286 166.5,195.5C 167.845,194.653 168.845,193.487 169.5,192C 170.437,191.308 171.103,191.475 171.5,192.5C 170.259,194.509 168.592,196.175 166.5,197.5C 165.145,196.812 164.145,195.812 163.5,194.5C 163.229,192.62 163.896,191.287 165.5,190.5 Z"/></g>
<g><path style="opacity:0.094" fill="#cbfaf9" d="M 169.5,198.5 C 167.349,200.984 165.015,200.984 162.5,198.5C 159.391,201.267 156.724,200.933 154.5,197.5C 157.423,199.101 160.09,198.768 162.5,196.5C 164.51,198.171 166.843,198.838 169.5,198.5 Z"/></g>
<g><path style="opacity:0.682" fill="#a7eeee" d="M 41.5,194.5 C 41.5,196.167 41.5,197.833 41.5,199.5C 40.5,201.5 39.5,203.5 38.5,205.5C 38.7424,201.521 39.7424,197.854 41.5,194.5 Z"/></g>
<g><path style="opacity:0.016" fill="#c3fbfc" d="M 113.5,197.5 C 110.106,200.221 106.439,202.554 102.5,204.5C 105.358,200.99 109.024,198.657 113.5,197.5 Z"/></g>
<g><path style="opacity:0.069" fill="#bffdfe" d="M 101.5,205.5 C 100.738,207.262 99.4044,208.262 97.5,208.5C 98.2623,206.738 99.5956,205.738 101.5,205.5 Z"/></g>
<g><path style="opacity:0.329" fill="#b9f5f7" d="M 173.5,211.5 C 170.813,211.336 168.146,211.503 165.5,212C 164.529,213.481 163.196,214.315 161.5,214.5C 157.514,209.405 153.347,209.405 149,214.5C 148.242,218.357 148.742,222.023 150.5,225.5C 144.019,217.446 145.852,212.112 156,209.5C 158.484,209.826 160.651,210.826 162.5,212.5C 166.051,209.109 169.718,208.776 173.5,211.5 Z"/></g>
<g><path style="opacity:0.027" fill="#c0fbfb" d="M 97.5,208.5 C 95.1667,211.5 92.5,214.167 89.5,216.5C 91.1667,212.833 93.8333,210.167 97.5,208.5 Z"/></g>
<g><path style="opacity:1" fill="#08cace" d="M 173.5,211.5 C 173.833,212.167 174.167,212.833 174.5,213.5C 174.678,214.695 175.011,215.862 175.5,217C 174.144,218.567 173.477,220.4 173.5,222.5C 171.058,222.119 170.391,222.786 171.5,224.5C 168.875,226.081 167.542,228.415 167.5,231.5C 166.022,231.762 164.689,231.429 163.5,230.5C 164.506,229.604 164.506,228.938 163.5,228.5C 162.996,231.522 161.329,232.689 158.5,232C 155.695,228.188 152.862,224.355 150,220.5C 149.332,214.171 152.166,211.671 158.5,213C 159.333,213.833 160.167,214.667 161,215.5C 161.399,215.272 161.565,214.938 161.5,214.5C 163.196,214.315 164.529,213.481 165.5,212C 168.146,211.503 170.813,211.336 173.5,211.5 Z"/></g>
<g><path style="opacity:0.1" fill="#c5fafb" d="M 173.5,211.5 C 178.078,212.843 179.578,215.843 178,220.5C 177.722,221.416 177.222,222.082 176.5,222.5C 178.482,218.77 177.815,215.77 174.5,213.5C 174.167,212.833 173.833,212.167 173.5,211.5 Z"/></g>
<g><path style="opacity:0.074" fill="#d6fefe" d="M 194.5,160.5 C 193.828,161.267 192.995,161.934 192,162.5C 191.5,199.498 191.333,236.498 191.5,273.5C 190.336,236.336 190.169,199.002 191,161.5C 192.011,160.663 193.178,160.33 194.5,160.5 Z"/></g>
<g><path style="opacity:0.349" fill="#c3fafb" d="M 38.5,205.5 C 37.6437,216.81 37.3104,228.143 37.5,239.5C 34.9815,228.109 35.3148,216.776 38.5,205.5 Z"/></g>
<g><path style="opacity:1" fill="#41c7c8" d="M 174.5,213.5 C 177.815,215.77 178.482,218.77 176.5,222.5C 175.094,222.973 174.427,223.973 174.5,225.5C 172.833,227.833 170.833,229.833 168.5,231.5C 168.167,231.5 167.833,231.5 167.5,231.5C 167.542,228.415 168.875,226.081 171.5,224.5C 170.391,222.786 171.058,222.119 173.5,222.5C 173.477,220.4 174.144,218.567 175.5,217C 175.011,215.862 174.678,214.695 174.5,213.5 Z"/></g>
<g><path style="opacity:0.157" fill="#bffbfc" d="M 88.5,216.5 C 88.8333,216.5 89.1667,216.5 89.5,216.5C 84.6012,226.218 82.6012,236.551 83.5,247.5C 83.1667,247.5 82.8333,247.5 82.5,247.5C 81.0127,236.403 83.0127,226.07 88.5,216.5 Z"/></g>
<g><path style="opacity:0.078" fill="#c4fafa" d="M 176.5,222.5 C 176.573,224.027 175.906,225.027 174.5,225.5C 174.427,223.973 175.094,222.973 176.5,222.5 Z"/></g>
<g><path style="opacity:0.024" fill="#d4fffe" d="M 150.5,225.5 C 152.5,226.833 154.167,228.5 155.5,230.5C 152.833,229.833 151.167,228.167 150.5,225.5 Z"/></g>
<g><path style="opacity:0.961" fill="#32bcbd" d="M 88.5,216.5 C 83.0127,226.07 81.0127,236.403 82.5,247.5C 82.6495,248.552 82.4828,249.552 82,250.5C 79.6358,239.08 80.9691,228.08 86,217.5C 86.8382,216.001 87.6715,215.668 88.5,216.5 Z"/></g>
<g><path style="opacity:1" fill="#3ac2c3" d="M 161.5,214.5 C 161.565,214.938 161.399,215.272 161,215.5C 160.167,214.667 159.333,213.833 158.5,213C 152.166,211.671 149.332,214.171 150,220.5C 152.862,224.355 155.695,228.188 158.5,232C 161.329,232.689 162.996,231.522 163.5,228.5C 164.506,228.938 164.506,229.604 163.5,230.5C 164.689,231.429 166.022,231.762 167.5,231.5C 166.089,233.914 164.089,235.581 161.5,236.5C 159.167,234.833 157.167,232.833 155.5,230.5C 154.167,228.5 152.5,226.833 150.5,225.5C 148.742,222.023 148.242,218.357 149,214.5C 153.347,209.405 157.514,209.405 161.5,214.5 Z"/></g>
<g><path style="opacity:0.043" fill="#cdfcfb" d="M 167.5,231.5 C 167.833,231.5 168.167,231.5 168.5,231.5C 167.323,235.413 164.989,237.079 161.5,236.5C 164.089,235.581 166.089,233.914 167.5,231.5 Z"/></g>
<g><path style="opacity:0.106" fill="#b7f8f9" d="M 37.5,239.5 C 39.6884,247.898 42.3551,256.231 45.5,264.5C 35.6736,265.494 25.6736,266.161 15.5,266.5C 24.7489,265.086 34.0822,263.92 43.5,263C 40.1699,255.513 38.1699,247.68 37.5,239.5 Z"/></g>
<g><path style="opacity:0.029" fill="#d7fefe" d="M 228.5,118.5 C 228.313,120.564 227.813,122.564 227,124.5C 226.5,170.499 226.333,216.499 226.5,262.5C 225.501,217.336 225.168,172.003 225.5,126.5C 225.415,123.351 226.415,120.684 228.5,118.5 Z"/></g>
<g><path style="opacity:1" fill="#25c1c1" d="M 41.5,199.5 C 39.763,207.73 38.763,216.063 38.5,224.5C 38.9569,234.816 40.6235,244.816 43.5,254.5C 44.552,254.351 45.552,254.517 46.5,255C 45.0813,258.163 45.4146,261.163 47.5,264C 46.9056,264.464 46.2389,264.631 45.5,264.5C 42.3551,256.231 39.6884,247.898 37.5,239.5C 37.3104,228.143 37.6437,216.81 38.5,205.5C 39.5,203.5 40.5,201.5 41.5,199.5 Z"/></g>
<g><path style="opacity:0.494" fill="#b7f8f8" d="M 84.5,253.5 C 85.6118,255.599 86.2785,257.933 86.5,260.5C 84.8372,258.562 84.1706,256.228 84.5,253.5 Z"/></g>
<g><path style="opacity:0.173" fill="#b6f9fa" d="M 86.5,260.5 C 88.2038,263.256 89.5371,266.256 90.5,269.5C 88.0257,267.102 86.6924,264.102 86.5,260.5 Z"/></g>
<g><path style="opacity:0.369" fill="#aff2f4" d="M 15.5,266.5 C 11.1992,269.722 9.19924,274.055 9.5,279.5C 7.62737,273.472 9.62737,269.138 15.5,266.5 Z"/></g>
<g><path style="opacity:0.814" fill="#4ec1c2" d="M 83.5,247.5 C 84.4614,249.265 84.7947,251.265 84.5,253.5C 84.1706,256.228 84.8372,258.562 86.5,260.5C 86.6924,264.102 88.0257,267.102 90.5,269.5C 90.4142,270.496 90.7476,271.329 91.5,272C 81.5056,272.5 71.5056,272.666 61.5,272.5C 70.4851,271.973 79.4851,271.139 88.5,270C 84.1294,263.196 82.4627,255.696 83.5,247.5 Z"/></g>
<g><path style="opacity:0.278" fill="#c3fdfd" d="M 90.5,269.5 C 93.253,271.419 93.0863,273.085 90,274.5C 78.3887,272.96 66.8887,273.46 55.5,276C 55,276.5 54.5,277 54,277.5C 53.7229,281.473 53.5562,285.306 53.5,289C 41.6593,289.826 29.9927,289.659 18.5,288.5C 29.8333,288.5 41.1667,288.5 52.5,288.5C 50.394,282.787 51.394,277.787 55.5,273.5C 57.7354,273.795 59.7354,273.461 61.5,272.5C 71.5056,272.666 81.5056,272.5 91.5,272C 90.7476,271.329 90.4142,270.496 90.5,269.5 Z"/></g>
<g><path style="opacity:0.135" fill="#befcfc" d="M 191.5,273.5 C 194.167,273.5 196.833,273.5 199.5,273.5C 199.833,274.167 200.167,274.833 200.5,275.5C 197.311,275.142 194.311,274.475 191.5,273.5 Z"/></g>
<g><path style="opacity:0.086" fill="#b8f8f8" d="M 9.5,279.5 C 10.4725,281.139 11.8058,282.473 13.5,283.5C 14.5,284.833 15.5,286.167 16.5,287.5C 12.7264,286.062 10.3931,283.395 9.5,279.5 Z"/></g>
<g><path style="opacity:1" fill="#3dbfc2" d="M 55.5,273.5 C 51.394,277.787 50.394,282.787 52.5,288.5C 41.1667,288.5 29.8333,288.5 18.5,288.5C 17.5084,288.672 16.8417,288.338 16.5,287.5C 15.5,286.167 14.5,284.833 13.5,283.5C 15.2554,284.072 16.9221,284.906 18.5,286C 29.1615,286.5 39.8281,286.667 50.5,286.5C 50.335,283.15 50.5017,279.817 51,276.5C 51.9078,274.561 53.4078,273.561 55.5,273.5 Z"/></g>
<g><path style="opacity:1" fill="#26bdbf" d="M 231.5,269.5 C 232.117,269.611 232.617,269.944 233,270.5C 233.499,276.491 233.666,282.491 233.5,288.5C 223.167,288.5 212.833,288.5 202.5,288.5C 202.665,284.818 202.499,281.152 202,277.5C 201.722,276.584 201.222,275.918 200.5,275.5C 200.167,274.833 199.833,274.167 199.5,273.5C 201.124,273.36 202.29,274.027 203,275.5C 203.719,279.145 204.219,282.812 204.5,286.5C 213.5,286.5 222.5,286.5 231.5,286.5C 231.5,282.833 231.5,279.167 231.5,275.5C 231.5,273.5 231.5,271.5 231.5,269.5 Z"/></g>
<g><path style="opacity:0.299" fill="#a8f7f8" d="M 225.5,126.5 C 225.168,172.003 225.501,217.336 226.5,262.5C 228.947,264.685 231.447,267.018 234,269.5C 234.5,276.158 234.666,282.825 234.5,289.5C 224.115,289.975 214.115,290.309 204.5,290.5C 203.833,290.167 203.167,289.833 202.5,289.5C 201.57,284.863 200.903,280.196 200.5,275.5C 201.222,275.918 201.722,276.584 202,277.5C 202.499,281.152 202.665,284.818 202.5,288.5C 212.833,288.5 223.167,288.5 233.5,288.5C 233.666,282.491 233.499,276.491 233,270.5C 232.617,269.944 232.117,269.611 231.5,269.5C 229.948,266.888 227.614,265.555 224.5,265.5C 224.168,218.997 224.501,172.664 225.5,126.5 Z"/></g>
</svg>
