<svg width="7" height="7" viewBox="0 0 7 7" fill="none" xmlns="http://www.w3.org/2000/svg">
<path fill-rule="evenodd" clip-rule="evenodd" d="M2.44522 0.875C2.55445 0.875 2.64299 0.965863 2.64299 1.07795V1.14383C2.65589 1.14046 2.66883 1.13721 2.68182 1.13408C3.21997 1.00455 3.78005 1.00455 4.31821 1.13408C4.33119 1.13721 4.34413 1.14046 4.35702 1.14383V1.07795C4.35702 0.965863 4.44557 0.875 4.5548 0.875C4.66402 0.875 4.75257 0.965863 4.75257 1.07795V1.29179C5.31641 1.5713 5.73784 2.09976 5.8845 2.74136C6.01074 3.2936 6.01074 3.86833 5.8845 4.42057C5.7022 5.21808 5.09538 5.84078 4.3182 6.02785C3.78005 6.15738 3.21998 6.15738 2.68182 6.02785C1.90464 5.84078 1.29782 5.21808 1.11552 4.42057C0.989285 3.86833 0.989285 3.2936 1.11552 2.74136C1.26218 2.09976 1.68361 1.5713 2.24745 1.2918V1.07795C2.24745 0.965863 2.336 0.875 2.44522 0.875ZM3.21634 2.88398C3.27813 2.82058 3.27813 2.71778 3.21634 2.65437C3.15455 2.59097 3.05438 2.59097 2.99259 2.65437L2.57707 3.08076L2.42525 2.92497C2.36346 2.86156 2.26329 2.86156 2.2015 2.92497C2.13971 2.98837 2.13971 3.09117 2.2015 3.15458L2.46519 3.42517C2.52698 3.48858 2.62716 3.48858 2.68895 3.42517L3.21634 2.88398ZM3.76371 3.01271C3.67633 3.01271 3.60549 3.0854 3.60549 3.17507C3.60549 3.26474 3.67633 3.33743 3.76371 3.33743H4.68665C4.77403 3.33743 4.84487 3.26474 4.84487 3.17507C4.84487 3.0854 4.77403 3.01271 4.68665 3.01271H3.76371ZM3.21634 4.23696C3.27813 4.17356 3.27813 4.07076 3.21634 4.00735C3.15455 3.94395 3.05438 3.94395 2.99259 4.00735L2.57707 4.43374L2.42525 4.27795C2.36346 4.21455 2.26329 4.21455 2.2015 4.27795C2.13971 4.34136 2.13971 4.44415 2.2015 4.50756L2.46519 4.77816C2.52698 4.84156 2.62716 4.84156 2.68895 4.77816L3.21634 4.23696ZM3.76371 4.3657C3.67633 4.3657 3.60549 4.43839 3.60549 4.52805C3.60549 4.61772 3.67633 4.69041 3.76371 4.69041H4.68665C4.77403 4.69041 4.84487 4.61772 4.84487 4.52805C4.84487 4.43839 4.77403 4.3657 4.68665 4.3657H3.76371Z" fill="#363853"/>
</svg>
