<svg width="8" height="7" viewBox="0 0 8 7" fill="none" xmlns="http://www.w3.org/2000/svg">
<g clip-path="url(#clip0_52_3682)">
<path d="M5.91113 3.20831H1.55557C1.21193 3.20831 0.93335 3.46948 0.93335 3.79165V5.83331C0.93335 6.15548 1.21193 6.41665 1.55557 6.41665H5.91113C6.25477 6.41665 6.53335 6.15548 6.53335 5.83331V3.79165C6.53335 3.46948 6.25477 3.20831 5.91113 3.20831Z" stroke="#353535" stroke-linecap="round" stroke-linejoin="round"/>
<path d="M2.1778 3.20831V2.04165C2.1778 1.65487 2.34168 1.28394 2.63341 1.01045C2.92513 0.736958 3.32079 0.583313 3.73335 0.583313C4.14591 0.583313 4.54157 0.736958 4.83329 1.01045C5.12502 1.28394 5.28891 1.65487 5.28891 2.04165V3.20831" stroke="black" stroke-linecap="round" stroke-linejoin="round"/>
</g>
<defs>
<clipPath id="clip0_52_3682">
<rect width="7.46667" height="7" fill="white"/>
</clipPath>
</defs>
</svg>
