
                    <svg width="4" height="4" viewBox="0 0 4 4" fill="none" xmlns="http://www.w3.org/2000/svg">
                    <g clip-path="url(#clip0_52_3518)">
                    <path d="M0.856143 1.63761C0.799338 1.45468 0.690112 1.30942 0.556486 1.23908C0.45951 1.18802 0.355229 1.18141 0.262861 1.22043C0.148065 1.26895 0.0629786 1.37933 0.0232833 1.53123C-0.0126308 1.66867 -0.00684174 1.82668 0.0395723 1.97615V1.97616C0.0963848 2.15909 0.205604 2.30435 0.339229 2.37469C0.39451 2.40379 0.452158 2.41846 0.508619 2.41846C0.551213 2.41846 0.593135 2.41011 0.632854 2.39333C0.747666 2.34482 0.832744 2.23444 0.87244 2.08254C0.908338 1.94511 0.902549 1.7871 0.856143 1.63761Z" fill="#04BFAD"/>
                    <path d="M2.95788 2.24205C2.68875 1.87649 2.34858 1.67517 2 1.67517C1.65142 1.67517 1.31124 1.87649 1.04214 2.24205C0.800237 2.57063 0.655823 2.98473 0.655823 3.34978C0.655823 3.52711 0.70401 3.66218 0.799042 3.75125C0.892838 3.83918 1.01667 3.86892 1.15483 3.86891C1.30184 3.86891 1.46507 3.83523 1.62546 3.80213C1.7656 3.77321 1.89798 3.74589 2.00001 3.74589C2.08807 3.74589 2.21224 3.77182 2.34367 3.79927C2.65083 3.86343 2.99899 3.93613 3.2001 3.74801C3.29571 3.65858 3.34419 3.52459 3.34419 3.34978C3.3442 2.98473 3.19978 2.57063 2.95788 2.24205Z" fill="#04BFAD"/>
                    <path d="M2.98539 0.256992C2.88692 0.0936651 2.74592 0 2.59854 0C2.45115 0 2.31015 0.0936739 2.21168 0.256992C2.12123 0.40703 2.07141 0.604064 2.07141 0.811802C2.07141 1.01954 2.12122 1.21657 2.21168 1.36661C2.31015 1.52993 2.45115 1.6236 2.59854 1.6236C2.74593 1.6236 2.88692 1.52993 2.98539 1.36661C3.07584 1.21657 3.12566 1.01954 3.12566 0.811802C3.12566 0.604064 3.07585 0.407022 2.98539 0.256992Z" fill="#04BFAD"/>
                    <path d="M3.97679 1.53124C3.93709 1.37933 3.85201 1.26895 3.73722 1.22044C3.64484 1.18141 3.54057 1.18802 3.4436 1.23908C3.30997 1.30943 3.20074 1.45469 3.14394 1.63762C3.09753 1.7871 3.09174 1.94511 3.12765 2.08254C3.16735 2.23445 3.25243 2.34483 3.36723 2.39334C3.40696 2.41013 3.44887 2.41847 3.49147 2.41847C3.54793 2.41847 3.60558 2.4038 3.66086 2.3747C3.79449 2.30435 3.90372 2.15908 3.96051 1.97617V1.97616C4.00692 1.82668 4.01271 1.66867 3.97679 1.53124Z" fill="#04BFAD"/>
                    <path d="M1.78831 0.256992C1.68984 0.093665 1.54884 0 1.40145 0C1.25406 0 1.11306 0.0936738 1.0146 0.256992C0.924149 0.40703 0.874329 0.604064 0.874329 0.811802C0.874329 1.01954 0.924141 1.21657 1.0146 1.36661C1.11307 1.52994 1.25406 1.62361 1.40145 1.62361C1.54884 1.62361 1.68984 1.52994 1.78831 1.36661C1.87876 1.21657 1.92858 1.01955 1.92858 0.811802C1.92857 0.604064 1.87876 0.407021 1.78831 0.256992Z" fill="#04BFAD"/>
                    </g>
                    <defs>
                    <clipPath id="clip0_52_3518">
                    <rect width="4" height="4" fill="white"/>
                    </clipPath>
                    </defs>
                    </svg>